<svg width="65" height="65" viewBox="0 0 65 65" fill="none" xmlns="http://www.w3.org/2000/svg">
<circle cx="32.5" cy="32.5" r="29" fill="#F20D21" stroke="#3A5C9D" stroke-width="7"/>
<path d="M31.5147 18.5654V44.9212C31.5147 46.5907 30.5486 46.9903 29.3691 45.8107L21.4432 37.8848H16.0352C15.2316 37.8833 14.4612 37.5639 13.8925 36.9962C13.3238 36.4284 13.0029 35.6587 13 34.8551V28.637C13.0022 27.8332 13.3223 27.0628 13.8904 26.4942C14.4585 25.9255 15.2286 25.6047 16.0324 25.6018H21.4432L29.3691 17.6759C30.5459 16.4991 31.5147 16.8987 31.5147 18.5654ZM51.3596 37.4168C51.5005 37.5577 51.6122 37.7249 51.6885 37.909C51.7647 38.0931 51.804 38.2904 51.804 38.4896C51.804 38.6889 51.7647 38.8862 51.6885 39.0702C51.6122 39.2543 51.5005 39.4216 51.3596 39.5625C51.2187 39.7034 51.0514 39.8151 50.8674 39.8914C50.6833 39.9676 50.486 40.0069 50.2867 40.0069C50.0875 40.0069 49.8902 39.9676 49.7061 39.8914C49.522 39.8151 49.3548 39.7034 49.2139 39.5625L43.5432 33.889L37.8697 39.5625C37.5851 39.847 37.1992 40.0069 36.7968 40.0069C36.3944 40.0069 36.0085 39.847 35.724 39.5625C35.4395 39.2779 35.2796 38.892 35.2796 38.4896C35.2796 38.0872 35.4395 37.7013 35.724 37.4168L41.3975 31.7433L35.724 26.0698C35.4398 25.7853 35.2803 25.3995 35.2806 24.9974C35.2808 24.5953 35.4408 24.2097 35.7254 23.9255C36.0099 23.6414 36.3957 23.4819 36.7978 23.4821C37.1999 23.4824 37.5855 23.6424 37.8697 23.9269L43.5404 29.6004L49.2112 23.9269C49.4953 23.6424 49.8809 23.4824 50.283 23.4821C50.6852 23.4819 51.0709 23.6414 51.3555 23.9255C51.64 24.2097 51.8 24.5953 51.8003 24.9974C51.8005 25.3995 51.641 25.7853 51.3568 26.0698L45.6861 31.7433L51.3596 37.4168Z" fill="#ECF5F5"/>
</svg>
