<?xml version="1.0" encoding="UTF-8"?>
<svg xmlns="http://www.w3.org/2000/svg" viewBox="0 0 783.06 860">
  <defs>
    <style>
      .cls-1 {
        fill: #fdeebd;
      }

      .cls-1, .cls-2, .cls-3, .cls-4, .cls-5, .cls-6 {
        stroke-width: 0px;
      }

      .cls-2 {
        fill: #f20d21;
      }

      .cls-3 {
        fill: #ecf5f5;
      }

      .cls-4 {
        fill: #6585c5;
      }

      .cls-5 {
        fill: #f2d42f;
      }

      .cls-6 {
        fill: #eb7e83;
      }
    </style>
  </defs>
  <g id="BG">
    <path class="cls-1" d="m786.52,233.52v626.48H.52V233.52c0-14.05,1.24-27.8,3.63-41.16,2.53-14.16,6.34-27.88,11.3-41.03,5.04-13.35,11.27-26.12,18.56-38.17,7.35-12.15,15.77-23.57,25.14-34.14,9.38-10.59,19.71-20.32,30.86-29.06,11.09-8.7,22.99-16.43,35.57-23.05,12.44-6.55,25.54-12.01,39.18-16.27,13.38-4.18,27.27-7.19,41.56-8.91h.01L234.91,0h317.22C553.47,0,554.81.01,556.14.04c14.07.23,27.83,1.7,41.19,4.3h0c13.73,2.67,27.02,6.54,39.78,11.49,12.97,5.03,25.38,11.18,37.11,18.32,11.84,7.21,22.98,15.44,33.31,24.56,10.35,9.14,19.89,19.18,28.49,30.01,8.57,10.79,16.2,22.35,22.78,34.56,6.51,12.09,11.99,24.83,16.3,38.08,4.25,13.01,7.37,26.53,9.27,40.44,1.41,10.37,2.14,20.96,2.14,31.72Z"/>
    <g>
      <polygon class="cls-6" points="402.44 422.31 289.29 0 327.97 0 402.44 422.31"/>
      <polygon class="cls-1" points="402.44 422.31 248.74 0 289.29 0 402.44 422.31"/>
      <path class="cls-6" d="m402.44,422.31L169.43,89.54l-43.85-62.63c12.44-6.55,25.54-12.01,39.18-16.27l38.07,65.94,199.61,345.73Z"/>
      <polygon class="cls-1" points="402.44 422.31 202.83 76.58 164.76 10.64 158.62 0 205.52 0 206.32 1.73 224.62 40.96 238.38 70.46 402.44 422.31"/>
      <polygon class="cls-6" points="402.44 422.31 238.38 70.46 224.62 40.96 206.33 1.73 234.91 0 248.74 0 274.22 70 402.44 422.31"/>
      <polygon class="cls-1" points="439.39 0 402.44 422.31 402.44 0 439.39 0"/>
      <polygon class="cls-1" points="402.44 422.31 327.97 0 365.49 0 402.44 422.31"/>
      <polygon class="cls-6" points="402.44 0 402.44 422.31 365.49 0 402.44 0"/>
      <polygon class="cls-1" points="402.44 422.31 .52 276.02 .52 234.89 402.44 422.31"/>
      <polygon class="cls-6" points="402.44 422.31 .52 314.62 .52 276.02 402.44 422.31"/>
      <polygon class="cls-1" points="402.44 422.31 71.73 231.37 4.15 192.36 .52 190.26 .52 140.88 15.45 151.33 79.07 195.88 402.44 422.31"/>
      <path class="cls-6" d="m402.44,422.31L70.78,267.65.52,234.89v-1.37c0-14.05,1.24-27.8,3.63-41.16l67.58,39.01,330.71,190.94Z"/>
      <polygon class="cls-1" points="402.44 422.31 .52 351.44 .52 314.62 402.44 422.31"/>
      <path class="cls-6" d="m402.44,422.31L79.07,195.88l-63.62-44.55c5.04-13.35,11.27-26.12,18.56-38.17l59.26,49.73,309.17,259.42Z"/>
      <path class="cls-6" d="m402.44,422.31L59.15,79.02c9.38-10.59,19.71-20.32,30.86-29.06l49.35,58.82,263.08,313.53Z"/>
      <path class="cls-1" d="m402.44,422.31L93.27,162.89l-59.26-49.73c7.35-12.15,15.77-23.57,25.14-34.14l343.29,343.29Z"/>
      <path class="cls-1" d="m402.44,422.31L139.36,108.78l-49.35-58.82c11.09-8.7,22.99-16.43,35.57-23.05l43.85,62.63,233.01,332.77Z"/>
      <path class="cls-6" d="m637.12,15.83l-18,31.18-5.84,10.12-14.05,24.34h-.01l-196.78,340.84,163.13-349.85,13.96-29.93,2.68-5.75,15.12-32.44h0c13.73,2.67,27.02,6.54,39.78,11.49Z"/>
      <polygon class="cls-6" points="786.52 243.21 786.52 282.52 402.44 422.31 786.52 243.21"/>
      <polygon class="cls-1" points="786.52 282.52 786.52 319.4 402.44 422.31 786.52 282.52"/>
      <polygon class="cls-1" points="786.52 200.56 786.52 243.21 716.26 275.97 402.44 422.31 716.06 241.24 784.38 201.8 786.52 200.56"/>
      <polygon class="cls-6" points="786.52 319.4 786.52 354.58 402.44 422.31 786.52 319.4"/>
      <polygon class="cls-1" points="786.52 422.31 786.52 455.91 402.44 422.31 786.52 422.31"/>
      <path class="cls-6" d="m784.38,201.8l-68.32,39.44-313.62,181.07,308.48-216,64.19-44.95c4.25,13.01,7.37,26.53,9.27,40.44Z"/>
      <polygon class="cls-1" points="786.52 354.58 786.52 388.7 402.44 422.31 786.52 354.58"/>
      <polygon class="cls-6" points="786.52 388.7 786.52 422.31 402.44 422.31 786.52 388.7"/>
      <path class="cls-1" d="m597.33,4.34l-15.12,32.44-2.68,5.75-13.96,29.93-163.13,349.85,128.23-352.31L556.14.04c14.07.23,27.83,1.7,41.19,4.3Z"/>
      <path class="cls-1" d="m674.23,34.15l-21.76,31.08-8.41,12-13.65,19.5-227.97,325.58,196.78-340.84h.01l14.05-24.34,5.84-10.12,18-31.18c12.97,5.03,25.38,11.18,37.11,18.32Z"/>
      <polygon class="cls-6" points="402.44 422.31 .52 387.15 .52 351.44 402.44 422.31"/>
      <polygon class="cls-1" points="515.6 0 402.44 422.31 476.91 0 515.6 0"/>
      <polygon class="cls-6" points="556.15 0 556.14 .04 530.67 70 402.44 422.31 496.84 70 515.6 0 556.15 0"/>
      <path class="cls-6" d="m758.81,123.28l-59.67,50.07-296.7,248.96,278.84-278.84,54.75-54.75c8.57,10.79,16.2,22.35,22.78,34.56Z"/>
      <path class="cls-6" d="m707.54,58.71l-49.46,58.93-255.64,304.67,227.97-325.58,13.65-19.5,8.41-12,21.76-31.08c11.84,7.21,22.98,15.44,33.31,24.56Z"/>
      <path class="cls-1" d="m775.11,161.36l-64.19,44.95-308.48,216,296.7-248.96,59.67-50.07c6.51,12.09,11.99,24.83,16.3,38.08Z"/>
      <path class="cls-1" d="m736.03,88.72l-54.75,54.75-278.84,278.84,255.64-304.67,49.46-58.93c10.35,9.14,19.89,19.18,28.49,30.01Z"/>
      <polygon class="cls-6" points="476.91 0 402.44 422.31 439.39 0 476.91 0"/>
      <polygon class="cls-1" points="655.15 860 606.54 860 402.44 422.31 655.15 860"/>
      <polygon class="cls-6" points="708.92 860 655.15 860 402.44 422.31 708.92 860"/>
      <polygon class="cls-1" points="769.7 860 708.92 860 402.44 422.31 769.7 860"/>
      <polygon class="cls-6" points="606.54 860 561.75 860 402.44 422.31 606.54 860"/>
      <polygon class="cls-1" points="402.44 422.31 402.44 860 364.15 860 402.44 422.31"/>
      <polygon class="cls-6" points="440.74 860 402.44 860 402.44 422.31 440.74 860"/>
      <polygon class="cls-1" points="402.44 422.31 .52 422.31 .52 387.15 402.44 422.31"/>
      <polygon class="cls-6" points="519.72 860 479.62 860 402.44 422.31 519.72 860"/>
      <path class="cls-6" d="m786.52,806.39v41.28c-4.53,4.19-9.13,8.3-13.79,12.33-.58.51-1.17,1.02-1.75,1.52l-1.28-1.52-367.26-437.69,384.08,384.08Z"/>
      <polygon class="cls-1" points="561.75 860 519.72 860 402.44 422.31 561.75 860"/>
      <polygon class="cls-6" points="786.52 525.22 786.52 562.1 402.44 422.31 786.52 525.22"/>
      <polygon class="cls-1" points="786.52 490.03 786.52 525.22 402.44 422.31 786.52 490.03"/>
      <polygon class="cls-6" points="786.52 455.91 786.52 490.03 402.44 422.31 786.52 455.91"/>
      <polygon class="cls-1" points="786.52 562.1 786.52 601.4 402.44 422.31 786.52 562.1"/>
      <polygon class="cls-1" points="786.52 744.59 786.52 806.39 402.44 422.31 786.52 744.59"/>
      <polygon class="cls-6" points="786.52 691.24 786.52 744.59 402.44 422.31 786.52 691.24"/>
      <polygon class="cls-6" points="786.52 601.4 786.52 644.06 402.44 422.31 786.52 601.4"/>
      <polygon class="cls-1" points="786.52 644.06 786.52 691.24 402.44 422.31 786.52 644.06"/>
      <polygon class="cls-1" points="479.62 860 440.74 860 402.44 422.31 479.62 860"/>
      <polygon class="cls-1" points="402.44 422.31 .52 654.36 .52 609.73 402.44 422.31"/>
      <polygon class="cls-6" points="402.44 422.31 .52 609.73 .52 568.6 402.44 422.31"/>
      <polygon class="cls-1" points="402.44 422.31 .52 568.6 .52 530 402.44 422.31"/>
      <polygon class="cls-6" points="402.44 422.31 .52 703.74 .52 654.36 402.44 422.31"/>
      <polygon class="cls-1" points="402.44 422.31 .52 759.56 .52 703.74 402.44 422.31"/>
      <polygon class="cls-6" points="402.44 422.31 .52 457.47 .52 422.31 402.44 422.31"/>
      <polygon class="cls-1" points="402.44 422.31 .52 493.18 .52 457.47 402.44 422.31"/>
      <polygon class="cls-6" points="402.44 422.31 .52 530 .52 493.18 402.44 422.31"/>
      <path class="cls-1" d="m.52,824.23l401.92-401.92L35.17,860h-14.12c-7-6.06-13.84-12.28-20.53-18.67v-17.1Z"/>
      <polygon class="cls-6" points="402.44 422.31 .52 824.23 .52 759.56 402.44 422.31"/>
      <polygon class="cls-6" points="402.44 422.31 285.17 860 243.14 860 402.44 422.31"/>
      <polygon class="cls-1" points="402.44 422.31 243.14 860 198.34 860 402.44 422.31"/>
      <polygon class="cls-1" points="402.44 422.31 325.27 860 285.17 860 402.44 422.31"/>
      <polygon class="cls-6" points="402.44 422.31 198.34 860 149.74 860 402.44 422.31"/>
      <polygon class="cls-6" points="402.44 422.31 364.15 860 325.27 860 402.44 422.31"/>
      <polygon class="cls-6" points="402.44 422.31 95.97 860 35.17 860 402.44 422.31"/>
      <polygon class="cls-1" points="402.44 422.31 149.74 860 95.97 860 402.44 422.31"/>
    </g>
    <g>
      <path class="cls-4" d="m786,435.48v100.33H0v-110.24c.64.22,1.23.61,1.72,1.16,9.47,10.65,23.73,17.43,39.68,17.43s30.21-6.78,39.68-17.43c1.3-1.47,3.34-1.77,4.97-.96,1.63-.81,3.66-.51,4.96.96,9.14,10.27,22.74,16.93,38.01,17.38.68-.02,1.36-.07,2.03-.11v.15c15.81-.1,29.93-6.85,39.33-17.42,1.67-1.88,4.56-1.88,6.23,0,9.47,10.65,23.73,17.43,39.68,17.43s30.22-6.78,39.69-17.43c1.67-1.88,4.56-1.88,6.23,0,9.47,10.65,23.74,17.43,39.69,17.43s30.21-6.78,39.68-17.43c1.67-1.88,4.56-1.88,6.23,0,9.48,10.65,23.74,17.43,39.69,17.43s30.21-6.78,39.68-17.43c1.67-1.88,4.56-1.88,6.23,0,9.48,10.65,23.74,17.43,39.69,17.43s30.21-6.78,39.68-17.43c1.67-1.88,4.56-1.88,6.23,0,9.48,10.65,23.74,17.43,39.69,17.43s30.21-6.78,39.68-17.43c1.67-1.88,4.56-1.88,6.24,0,9.47,10.65,23.73,17.43,39.68,17.43s30.21-6.78,39.68-17.43c1.67-1.88,4.57-1.88,6.24,0,9.47,10.65,23.73,17.43,39.68,17.43s30.21-6.78,39.68-17.43c1.67-1.88,4.57-1.88,6.24,0,2.95,3.33,6.38,6.27,10.18,8.75Z"/>
      <path class="cls-3" d="m786,428.4v13.83c-4.91-2.77-9.4-6.26-13.3-10.37-10.9,11.5-26.39,18.07-42.8,18.07s-31.9-6.57-42.8-18.07c-10.9,11.5-26.39,18.07-42.8,18.07s-31.9-6.57-42.8-18.07c-10.9,11.5-26.39,18.07-42.8,18.07s-31.9-6.57-42.8-18.07c-10.9,11.5-26.4,18.07-42.8,18.07s-31.9-6.57-42.8-18.07c-10.9,11.5-26.4,18.07-42.8,18.07s-31.9-6.57-42.8-18.07c-10.9,11.5-26.4,18.07-42.8,18.07s-31.91-6.57-42.8-18.07c-10.9,11.5-26.4,18.07-42.81,18.07s-31.9-6.57-42.8-18.07c-9.53,10.06-22.57,16.34-36.67,17.76v.03h-.46c-1.87.18-3.76.28-5.67.28-1.81,0-3.61-.1-5.4-.26v.23c-14.87-.41-28.87-6.22-39.24-16.18-9.42,9.05-21.84,14.67-35.19,15.93h-3.79c-1.88.18-3.77.28-5.67.28-15.72,0-30.59-6.03-41.4-16.66v-13.61c2.31.32,4.46,1.46,6.03,3.23,8.75,9.85,21.65,15.5,35.37,15.5s26.62-5.65,35.37-15.49c1.89-2.13,4.6-3.35,7.43-3.35.63,0,1.24.07,1.85.19.6-.12,1.22-.19,1.84-.19,2.83,0,5.54,1.22,7.43,3.34,8.38,9.42,20.54,14.99,33.59,15.46.54-.03,1.11-.06,1.73-.11l6.18-.45v.21c11.38-1.42,21.81-6.74,29.25-15.1,1.89-2.13,4.6-3.35,7.42-3.35s5.54,1.22,7.43,3.34c8.76,9.85,21.65,15.5,35.37,15.5s26.62-5.65,35.38-15.49c1.89-2.13,4.6-3.35,7.43-3.35s5.53,1.22,7.42,3.34c8.76,9.85,21.65,15.5,35.38,15.5s26.61-5.65,35.37-15.49c1.89-2.13,4.6-3.35,7.43-3.35s5.53,1.22,7.42,3.34c8.76,9.85,21.65,15.5,35.38,15.5s26.61-5.65,35.37-15.49c1.89-2.13,4.6-3.35,7.43-3.35s5.53,1.22,7.42,3.34c8.76,9.85,21.65,15.5,35.38,15.5s26.61-5.65,35.37-15.49c1.89-2.13,4.6-3.35,7.43-3.35s5.53,1.22,7.42,3.34c8.76,9.85,21.66,15.5,35.38,15.5s26.61-5.65,35.37-15.49c1.89-2.13,4.6-3.35,7.43-3.35s5.54,1.22,7.43,3.34c8.75,9.85,21.65,15.5,35.37,15.5s26.62-5.65,35.37-15.49c1.89-2.13,4.6-3.35,7.43-3.35s5.54,1.22,7.43,3.34c8.75,9.85,21.65,15.5,35.37,15.5s26.62-5.65,35.37-15.49c1.89-2.13,4.6-3.35,7.43-3.35s5.54,1.22,7.43,3.34c1.79,2.02,3.76,3.86,5.87,5.51Z"/>
    </g>
    <g>
      <path class="cls-4" d="m780.47,535.51v-.28c-1.34.1-2.69.16-4.05.16-15.95,0-30.21-6.78-39.68-17.43-1.67-1.88-4.56-1.88-6.23,0-9.47,10.65-23.73,17.43-39.68,17.43s-30.21-6.78-39.68-17.43c-1.67-1.88-4.56-1.88-6.23,0-9.47,10.65-23.73,17.43-39.68,17.43s-30.21-6.78-39.68-17.43c-1.67-1.88-4.56-1.88-6.23,0-9.47,10.65-23.73,17.43-39.68,17.43s-30.21-6.78-39.68-17.43c-1.67-1.88-4.56-1.88-6.23,0-9.47,10.65-23.73,17.43-39.68,17.43s-30.21-6.78-39.68-17.43c-1.67-1.88-4.56-1.88-6.23,0-9.47,10.65-23.73,17.43-39.68,17.43s-30.21-6.78-39.68-17.43c-1.67-1.88-4.56-1.88-6.23,0-9.47,10.65-23.73,17.43-39.68,17.43s-30.21-6.78-39.68-17.43c-1.67-1.88-4.56-1.88-6.23,0-9.47,10.65-23.73,17.43-39.68,17.43s-30.21-6.78-39.68-17.43c-1.67-1.88-4.56-1.88-6.23,0-9.47,10.65-23.73,17.43-39.68,17.43s-30.21-6.78-39.68-17.43c-1.67-1.88-4.56-1.88-6.23,0-9.47,10.65-23.73,17.43-39.68,17.43v.12H.24v91.54h786v-91.54h-5.77Z"/>
      <path class="cls-3" d="m11.78,540.88c14.23-1.35,27.42-7.65,37.03-17.79,10.9,11.5,26.4,18.07,42.8,18.07s31.9-6.56,42.8-18.07c10.9,11.5,26.39,18.07,42.8,18.07s31.9-6.56,42.8-18.07c10.9,11.5,26.4,18.07,42.8,18.07s31.9-6.56,42.8-18.07c10.9,11.5,26.4,18.07,42.8,18.07s31.9-6.56,42.8-18.07c10.9,11.5,26.39,18.07,42.8,18.07s31.9-6.56,42.8-18.07c10.9,11.5,26.4,18.07,42.8,18.07s31.9-6.56,42.8-18.07c10.9,11.5,26.4,18.07,42.8,18.07s31.9-6.56,42.8-18.07c10.9,11.5,26.4,18.07,42.8,18.07s31.9-6.56,42.8-18.07c10.52,11.1,25.32,17.6,41.09,18.04v-.25h11.53v-11.86l-6.19.45c-1.38.1-2.54.15-3.64.15-13.72,0-26.62-5.65-35.37-15.5-1.89-2.12-4.6-3.34-7.43-3.34s-5.54,1.22-7.43,3.34c-8.76,9.85-21.65,15.5-35.37,15.5s-26.62-5.65-35.37-15.5c-1.89-2.12-4.6-3.34-7.43-3.34s-5.54,1.22-7.43,3.34c-8.76,9.85-21.65,15.5-35.37,15.5s-26.62-5.65-35.37-15.5c-1.89-2.12-4.6-3.34-7.43-3.34s-5.54,1.22-7.43,3.34c-8.76,9.85-21.65,15.5-35.37,15.5s-26.62-5.65-35.37-15.5c-1.89-2.12-4.6-3.34-7.43-3.34s-5.54,1.22-7.43,3.34c-8.76,9.85-21.65,15.5-35.38,15.5s-26.62-5.65-35.37-15.5c-1.89-2.12-4.6-3.34-7.43-3.34s-5.54,1.22-7.43,3.34c-8.76,9.85-21.65,15.5-35.37,15.5s-26.62-5.65-35.38-15.5c-1.89-2.12-4.6-3.34-7.43-3.34s-5.54,1.22-7.43,3.34c-8.76,9.85-21.65,15.5-35.37,15.5s-26.62-5.65-35.37-15.5c-1.89-2.12-4.6-3.34-7.43-3.34s-5.54,1.22-7.43,3.34c-8.76,9.85-21.65,15.5-35.37,15.5s-26.62-5.65-35.37-15.5c-1.89-2.12-4.6-3.34-7.43-3.34s-5.54,1.22-7.43,3.34c-8.76,9.85-21.65,15.5-35.37,15.5s-26.62-5.65-35.37-15.5c-1.89-2.12-4.6-3.34-7.43-3.34s-5.54,1.22-7.43,3.34c-8.76,9.85-21.65,15.5-35.37,15.5H.24v11.26h11.53Z"/>
    </g>
    <g>
      <path class="cls-4" d="m786,615.48v100.33H0v-110.24c.64.22,1.23.61,1.72,1.16,9.47,10.65,23.73,17.43,39.68,17.43s30.21-6.78,39.68-17.43c1.3-1.47,3.34-1.77,4.97-.96,1.63-.81,3.66-.51,4.96.96,9.14,10.27,22.74,16.93,38.01,17.38.68-.02,1.36-.07,2.03-.11v.15c15.81-.1,29.93-6.85,39.33-17.42,1.67-1.88,4.56-1.88,6.23,0,9.47,10.65,23.73,17.43,39.68,17.43s30.22-6.78,39.69-17.43c1.67-1.88,4.56-1.88,6.23,0,9.47,10.65,23.74,17.43,39.69,17.43s30.21-6.78,39.68-17.43c1.67-1.88,4.56-1.88,6.23,0,9.48,10.65,23.74,17.43,39.69,17.43s30.21-6.78,39.68-17.43c1.67-1.88,4.56-1.88,6.23,0,9.48,10.65,23.74,17.43,39.69,17.43s30.21-6.78,39.68-17.43c1.67-1.88,4.56-1.88,6.23,0,9.48,10.65,23.74,17.43,39.69,17.43s30.21-6.78,39.68-17.43c1.67-1.88,4.56-1.88,6.24,0,9.47,10.65,23.73,17.43,39.68,17.43s30.21-6.78,39.68-17.43c1.67-1.88,4.57-1.88,6.24,0,9.47,10.65,23.73,17.43,39.68,17.43s30.21-6.78,39.68-17.43c1.67-1.88,4.57-1.88,6.24,0,2.95,3.33,6.38,6.27,10.18,8.75Z"/>
      <path class="cls-3" d="m786,608.4v13.83c-4.91-2.77-9.4-6.26-13.3-10.37-10.9,11.5-26.39,18.07-42.8,18.07s-31.9-6.57-42.8-18.07c-10.9,11.5-26.39,18.07-42.8,18.07s-31.9-6.57-42.8-18.07c-10.9,11.5-26.39,18.07-42.8,18.07s-31.9-6.57-42.8-18.07c-10.9,11.5-26.4,18.07-42.8,18.07s-31.9-6.57-42.8-18.07c-10.9,11.5-26.4,18.07-42.8,18.07s-31.9-6.57-42.8-18.07c-10.9,11.5-26.4,18.07-42.8,18.07s-31.91-6.57-42.8-18.07c-10.9,11.5-26.4,18.07-42.81,18.07s-31.9-6.57-42.8-18.07c-9.53,10.06-22.57,16.34-36.67,17.76v.03h-.46c-1.87.18-3.76.28-5.67.28-1.81,0-3.61-.1-5.4-.26v.23c-14.87-.41-28.87-6.22-39.24-16.18-9.42,9.05-21.84,14.67-35.19,15.93h-3.79c-1.88.18-3.77.28-5.67.28-15.72,0-30.59-6.03-41.4-16.66v-13.61c2.31.32,4.46,1.46,6.03,3.23,8.75,9.85,21.65,15.5,35.37,15.5s26.62-5.65,35.37-15.49c1.89-2.13,4.6-3.35,7.43-3.35.63,0,1.24.07,1.85.19.6-.12,1.22-.19,1.84-.19,2.83,0,5.54,1.22,7.43,3.34,8.38,9.42,20.54,14.99,33.59,15.46.54-.03,1.11-.06,1.73-.11l6.18-.45v.21c11.38-1.42,21.81-6.74,29.25-15.1,1.89-2.13,4.6-3.35,7.42-3.35s5.54,1.22,7.43,3.34c8.76,9.85,21.65,15.5,35.37,15.5s26.62-5.65,35.38-15.49c1.89-2.13,4.6-3.35,7.43-3.35s5.53,1.22,7.42,3.34c8.76,9.85,21.65,15.5,35.38,15.5s26.61-5.65,35.37-15.49c1.89-2.13,4.6-3.35,7.43-3.35s5.53,1.22,7.42,3.34c8.76,9.85,21.65,15.5,35.38,15.5s26.61-5.65,35.37-15.49c1.89-2.13,4.6-3.35,7.43-3.35s5.53,1.22,7.42,3.34c8.76,9.85,21.65,15.5,35.38,15.5s26.61-5.65,35.37-15.49c1.89-2.13,4.6-3.35,7.43-3.35s5.53,1.22,7.42,3.34c8.76,9.85,21.66,15.5,35.38,15.5s26.61-5.65,35.37-15.49c1.89-2.13,4.6-3.35,7.43-3.35s5.54,1.22,7.43,3.34c8.75,9.85,21.65,15.5,35.37,15.5s26.62-5.65,35.37-15.49c1.89-2.13,4.6-3.35,7.43-3.35s5.54,1.22,7.43,3.34c8.75,9.85,21.65,15.5,35.37,15.5s26.62-5.65,35.37-15.49c1.89-2.13,4.6-3.35,7.43-3.35s5.54,1.22,7.43,3.34c1.79,2.02,3.76,3.86,5.87,5.51Z"/>
    </g>
    <g>
      <path class="cls-4" d="m780.47,713.28v-.28c-1.34.1-2.69.16-4.05.16-15.95,0-30.21-6.78-39.68-17.43-1.67-1.88-4.56-1.88-6.23,0-9.47,10.65-23.73,17.43-39.68,17.43s-30.21-6.78-39.68-17.43c-1.67-1.88-4.56-1.88-6.23,0-9.47,10.65-23.73,17.43-39.68,17.43s-30.21-6.78-39.68-17.43c-1.67-1.88-4.56-1.88-6.23,0-9.47,10.65-23.73,17.43-39.68,17.43s-30.21-6.78-39.68-17.43c-1.67-1.88-4.56-1.88-6.23,0-9.47,10.65-23.73,17.43-39.68,17.43s-30.21-6.78-39.68-17.43c-1.67-1.88-4.56-1.88-6.23,0-9.47,10.65-23.73,17.43-39.68,17.43s-30.21-6.78-39.68-17.43c-1.67-1.88-4.56-1.88-6.23,0-9.47,10.65-23.73,17.43-39.68,17.43s-30.21-6.78-39.68-17.43c-1.67-1.88-4.56-1.88-6.23,0-9.47,10.65-23.73,17.43-39.68,17.43s-30.21-6.78-39.68-17.43c-1.67-1.88-4.56-1.88-6.23,0-9.47,10.65-23.73,17.43-39.68,17.43s-30.21-6.78-39.68-17.43c-1.67-1.88-4.56-1.88-6.23,0-9.47,10.65-23.73,17.43-39.68,17.43v.12H.24v91.54h786v-91.54h-5.77Z"/>
      <path class="cls-3" d="m11.78,718.66c14.23-1.35,27.42-7.65,37.03-17.79,10.9,11.5,26.4,18.07,42.8,18.07s31.9-6.56,42.8-18.07c10.9,11.5,26.39,18.07,42.8,18.07s31.9-6.56,42.8-18.07c10.9,11.5,26.4,18.07,42.8,18.07s31.9-6.56,42.8-18.07c10.9,11.5,26.4,18.07,42.8,18.07s31.9-6.56,42.8-18.07c10.9,11.5,26.39,18.07,42.8,18.07s31.9-6.56,42.8-18.07c10.9,11.5,26.4,18.07,42.8,18.07s31.9-6.56,42.8-18.07c10.9,11.5,26.4,18.07,42.8,18.07s31.9-6.56,42.8-18.07c10.9,11.5,26.4,18.07,42.8,18.07s31.9-6.56,42.8-18.07c10.52,11.1,25.32,17.6,41.09,18.04v-.25h11.53v-11.86l-6.19.45c-1.38.1-2.54.15-3.64.15-13.72,0-26.62-5.65-35.37-15.5-1.89-2.12-4.6-3.34-7.43-3.34s-5.54,1.22-7.43,3.34c-8.76,9.85-21.65,15.5-35.37,15.5s-26.62-5.65-35.37-15.5c-1.89-2.12-4.6-3.34-7.43-3.34s-5.54,1.22-7.43,3.34c-8.76,9.85-21.65,15.5-35.37,15.5s-26.62-5.65-35.37-15.5c-1.89-2.12-4.6-3.34-7.43-3.34s-5.54,1.22-7.43,3.34c-8.76,9.85-21.65,15.5-35.37,15.5s-26.62-5.65-35.37-15.5c-1.89-2.12-4.6-3.34-7.43-3.34s-5.54,1.22-7.43,3.34c-8.76,9.85-21.65,15.5-35.38,15.5s-26.62-5.65-35.37-15.5c-1.89-2.12-4.6-3.34-7.43-3.34s-5.54,1.22-7.43,3.34c-8.76,9.85-21.65,15.5-35.37,15.5s-26.62-5.65-35.38-15.5c-1.89-2.12-4.6-3.34-7.43-3.34s-5.54,1.22-7.43,3.34c-8.76,9.85-21.65,15.5-35.37,15.5s-26.62-5.65-35.37-15.5c-1.89-2.12-4.6-3.34-7.43-3.34s-5.54,1.22-7.43,3.34c-8.76,9.85-21.65,15.5-35.37,15.5s-26.62-5.65-35.37-15.5c-1.89-2.12-4.6-3.34-7.43-3.34s-5.54,1.22-7.43,3.34c-8.76,9.85-21.65,15.5-35.37,15.5s-26.62-5.65-35.37-15.5c-1.89-2.12-4.6-3.34-7.43-3.34s-5.54,1.22-7.43,3.34c-8.76,9.85-21.65,15.5-35.37,15.5H.24v11.26h11.53Z"/>
    </g>
    <g id="Down_part" data-name="Down part">
      <rect class="cls-2" x="0" y="805.88" width="786" height="54.12"/>
      <rect class="cls-5" x="-.24" y="778.82" width="786" height="27.06"/>
      <g>
        <path class="cls-6" d="m786,805.88c0,21.54-17.5,39-39.09,39s-39.09-17.46-39.09-39h78.17Z"/>
        <path class="cls-3" d="m707.35,805.88c0,21.54-17.51,39-39.09,39s-39.09-17.46-39.09-39h78.17Z"/>
        <path class="cls-6" d="m628.7,805.88c0,21.54-17.5,39-39.09,39s-39.09-17.46-39.09-39h78.17Z"/>
        <path class="cls-3" d="m550.05,805.88c0,21.54-17.5,39-39.09,39s-39.09-17.46-39.09-39h78.17Z"/>
        <path class="cls-6" d="m471.41,805.88c0,21.54-17.5,39-39.09,39s-39.09-17.46-39.09-39h78.17Z"/>
        <path class="cls-3" d="m392.76,805.88c0,21.54-17.5,39-39.09,39s-39.09-17.46-39.09-39h78.17Z"/>
        <path class="cls-6" d="m314.11,805.88c0,21.54-17.5,39-39.09,39s-39.09-17.46-39.09-39h78.17Z"/>
        <path class="cls-3" d="m235.46,805.88c0,21.54-17.5,39-39.09,39s-39.09-17.46-39.09-39h78.17Z"/>
        <path class="cls-6" d="m156.81,805.88c0,21.54-17.5,39-39.09,39s-39.09-17.46-39.09-39h78.17Z"/>
        <path class="cls-3" d="m78.17,805.88c0,21.54-17.51,39-39.09,39S0,827.42,0,805.88h78.17Z"/>
      </g>
      <g>
        <circle class="cls-3" cx="15" cy="792.35" r="7.5"/>
        <circle class="cls-3" cx="45.23" cy="792.35" r="7.5"/>
        <circle class="cls-3" cx="75.46" cy="792.35" r="7.5"/>
        <circle class="cls-3" cx="105.69" cy="792.35" r="7.5"/>
        <circle class="cls-3" cx="135.92" cy="792.35" r="7.5"/>
        <circle class="cls-3" cx="166.15" cy="792.35" r="7.5"/>
        <circle class="cls-3" cx="196.38" cy="792.35" r="7.5"/>
        <circle class="cls-3" cx="226.61" cy="792.35" r="7.5"/>
        <circle class="cls-3" cx="256.84" cy="792.35" r="7.5"/>
        <circle class="cls-3" cx="287.07" cy="792.35" r="7.5"/>
        <circle class="cls-3" cx="317.3" cy="792.35" r="7.5"/>
        <circle class="cls-3" cx="347.53" cy="792.35" r="7.5"/>
        <circle class="cls-3" cx="377.76" cy="792.35" r="7.5"/>
        <circle class="cls-3" cx="407.99" cy="792.35" r="7.5"/>
        <circle class="cls-3" cx="438.22" cy="792.35" r="7.5"/>
        <circle class="cls-3" cx="468.45" cy="792.35" r="7.5"/>
        <circle class="cls-3" cx="498.68" cy="792.35" r="7.5"/>
        <circle class="cls-3" cx="528.91" cy="792.35" r="7.5"/>
        <circle class="cls-3" cx="559.14" cy="792.35" r="7.5"/>
        <circle class="cls-3" cx="589.37" cy="792.35" r="7.5"/>
        <circle class="cls-3" cx="619.6" cy="792.35" r="7.5"/>
        <circle class="cls-3" cx="649.83" cy="792.35" r="7.5"/>
        <circle class="cls-3" cx="680.06" cy="792.35" r="7.5"/>
        <circle class="cls-3" cx="710.29" cy="792.35" r="7.5"/>
        <circle class="cls-3" cx="740.52" cy="792.35" r="7.5"/>
        <circle class="cls-3" cx="770.76" cy="792.35" r="7.5"/>
      </g>
    </g>
  </g>
  <g id="Curtains">
    <rect class="cls-5" x="-.24" y="778.82" width=".76" height="81.18"/>
  </g>
</svg>