<?xml version="1.0" encoding="UTF-8"?>
<svg id="_Слой_21" data-name="Слой 21" xmlns="http://www.w3.org/2000/svg" viewBox="0 0 390 850">
  <defs>
    <style>
      .cls-1 {
        fill: #fdeebd;
      }

      .cls-1, .cls-2, .cls-3 {
        stroke-width: 0px;
      }

      .cls-2 {
        fill: #e3513e;
      }

      .cls-3 {
        fill: #6585c5;
      }
    </style>
  </defs>
  <polygon class="cls-3" points="199.52 421.12 86.68 0 125.26 0 199.52 421.12"/>
  <polygon class="cls-1" points="199.52 421.12 46.24 0 86.68 0 199.52 421.12"/>
  <polygon class="cls-3" points="199.52 421.12 0 136.18 0 75.55 199.52 421.12"/>
  <polygon class="cls-1" points="199.52 421.12 0 75.55 0 0 3.14 0 199.52 421.12"/>
  <polygon class="cls-2" points="199.52 421.12 3.14 0 46.24 0 199.52 421.12"/>
  <polygon class="cls-1" points="236.36 0 199.52 421.12 199.52 0 236.36 0"/>
  <polygon class="cls-1" points="199.52 421.12 125.26 0 162.67 0 199.52 421.12"/>
  <polygon class="cls-2" points="199.52 0 199.52 421.12 162.67 0 199.52 0"/>
  <polygon class="cls-1" points="199.52 421.12 0 348.5 0 328.08 199.52 421.12"/>
  <polygon class="cls-3" points="199.52 421.12 0 367.66 0 348.5 199.52 421.12"/>
  <polygon class="cls-1" points="199.52 421.12 0 305.93 0 281.42 199.52 421.12"/>
  <polygon class="cls-2" points="199.52 421.12 0 328.08 0 305.93 199.52 421.12"/>
  <polygon class="cls-1" points="199.52 421.12 0 385.94 0 367.66 199.52 421.12"/>
  <polygon class="cls-3" points="199.52 421.12 0 281.42 0 253.71 199.52 421.12"/>
  <polygon class="cls-2" points="199.52 421.12 0 221.61 0 183.34 199.52 421.12"/>
  <polygon class="cls-1" points="199.52 421.12 0 253.71 0 221.61 199.52 421.12"/>
  <polygon class="cls-1" points="199.52 421.12 0 183.34 0 136.18 199.52 421.12"/>
  <polygon class="cls-3" points="390 12.62 390 91.19 199.52 421.12 390 12.62"/>
  <polygon class="cls-3" points="390 332.3 390 351.79 199.52 421.12 390 332.3"/>
  <polygon class="cls-1" points="390 351.79 390 370.08 199.52 421.12 390 351.79"/>
  <polygon class="cls-1" points="390 311.14 390 332.3 199.52 421.12 390 311.14"/>
  <polygon class="cls-2" points="390 370.08 390 387.53 199.52 421.12 390 370.08"/>
  <polygon class="cls-1" points="390 421.12 390 437.79 199.52 421.12 390 421.12"/>
  <polygon class="cls-2" points="390 287.74 390 311.14 199.52 421.12 390 287.74"/>
  <polygon class="cls-1" points="390 387.53 390 404.46 199.52 421.12 390 387.53"/>
  <polygon class="cls-3" points="390 404.46 390 421.12 199.52 421.12 390 404.46"/>
  <polygon class="cls-1" points="390 0 390 12.62 199.52 421.12 352.79 0 390 0"/>
  <polygon class="cls-1" points="390 91.19 390 149.07 199.52 421.12 390 91.19"/>
  <polygon class="cls-2" points="199.52 421.12 0 403.66 0 385.94 199.52 421.12"/>
  <polygon class="cls-1" points="312.36 0 199.52 421.12 273.77 0 312.36 0"/>
  <polygon class="cls-2" points="352.79 0 199.52 421.12 312.36 0 352.79 0"/>
  <polygon class="cls-3" points="390 230.64 390 261.29 199.52 421.12 390 230.64"/>
  <polygon class="cls-2" points="390 149.07 390 194.11 199.52 421.12 390 149.07"/>
  <polygon class="cls-1" points="390 261.29 390 287.74 199.52 421.12 390 261.29"/>
  <polygon class="cls-1" points="390 194.11 390 230.64 199.52 421.12 390 194.11"/>
  <polygon class="cls-3" points="273.77 0 199.52 421.12 236.36 0 273.77 0"/>
  <polygon class="cls-1" points="390 751.05 390 829.62 199.52 421.12 390 751.05"/>
  <polygon class="cls-3" points="390 693.16 390 751.05 199.52 421.12 390 693.16"/>
  <polygon class="cls-1" points="390 648.13 390 693.16 199.52 421.12 390 648.13"/>
  <path class="cls-2" d="m390,829.62l-190.48-408.5,156.1,428.88h31.86c.84-.37,1.68-.76,2.52-1.15v-19.23Z"/>
  <polygon class="cls-1" points="199.52 421.12 199.52 850 161.99 850 199.52 421.12"/>
  <polygon class="cls-2" points="237.04 850 199.52 850 199.52 421.12 237.04 850"/>
  <polygon class="cls-1" points="199.52 421.12 0 421.12 0 403.66 199.52 421.12"/>
  <polygon class="cls-3" points="314.43 850 275.14 850 199.52 421.12 314.43 850"/>
  <polygon class="cls-2" points="390 611.6 390 648.13 199.52 421.12 390 611.6"/>
  <polygon class="cls-1" points="355.62 850 314.43 850 199.52 421.12 355.62 850"/>
  <polygon class="cls-3" points="390 472.16 390 490.45 199.52 421.12 390 472.16"/>
  <polygon class="cls-1" points="390 454.71 390 472.16 199.52 421.12 390 454.71"/>
  <polygon class="cls-2" points="390 437.79 390 454.71 199.52 421.12 390 437.79"/>
  <polygon class="cls-1" points="390 490.45 390 509.94 199.52 421.12 390 490.45"/>
  <polygon class="cls-1" points="390 580.95 390 611.6 199.52 421.12 390 580.95"/>
  <polygon class="cls-3" points="390 554.5 390 580.95 199.52 421.12 390 554.5"/>
  <polygon class="cls-2" points="390 509.94 390 531.1 199.52 421.12 390 509.94"/>
  <polygon class="cls-1" points="390 531.1 390 554.5 199.52 421.12 390 531.1"/>
  <polygon class="cls-1" points="275.14 850 237.04 850 199.52 421.12 275.14 850"/>
  <polygon class="cls-1" points="199.52 421.12 0 536.31 0 514.16 199.52 421.12"/>
  <polygon class="cls-3" points="199.52 421.12 0 514.16 0 493.74 199.52 421.12"/>
  <polygon class="cls-1" points="199.52 421.12 0 493.74 0 474.58 199.52 421.12"/>
  <polygon class="cls-2" points="199.52 421.12 0 560.83 0 536.31 199.52 421.12"/>
  <polygon class="cls-1" points="199.52 421.12 0 588.53 0 560.83 199.52 421.12"/>
  <polygon class="cls-3" points="199.52 421.12 0 438.57 0 421.12 199.52 421.12"/>
  <polygon class="cls-1" points="199.52 421.12 0 456.3 0 438.57 199.52 421.12"/>
  <polygon class="cls-2" points="199.52 421.12 0 474.58 0 456.3 199.52 421.12"/>
  <polygon class="cls-1" points="199.52 421.12 0 658.89 0 620.64 199.52 421.12"/>
  <polygon class="cls-3" points="199.52 421.12 0 620.64 0 588.53 199.52 421.12"/>
  <polygon class="cls-2" points="199.52 421.12 84.6 850 43.41 850 199.52 421.12"/>
  <path class="cls-1" d="m199.52,421.12L43.41,850H2.53c-.83-.37-1.66-.74-2.48-1.12l199.47-427.76Z"/>
  <polygon class="cls-1" points="199.52 421.12 123.89 850 84.6 850 199.52 421.12"/>
  <path class="cls-3" d="m199.52,421.12L.05,848.88s-.03-.02-.05-.02v-82.17l199.52-345.57Z"/>
  <polygon class="cls-3" points="199.52 421.12 161.99 850 123.89 850 199.52 421.12"/>
  <polygon class="cls-2" points="199.52 421.12 0 706.06 0 658.89 199.52 421.12"/>
  <polygon class="cls-1" points="199.52 421.12 0 766.69 0 706.06 199.52 421.12"/>
</svg>