<?xml version="1.0" encoding="UTF-8"?>
<svg id="BG" xmlns="http://www.w3.org/2000/svg" viewBox="0 0 2000 2000">
  <defs>
    <style>
      .cls-1 {
        fill: #fdeebd;
      }

      .cls-1, .cls-2, .cls-3 {
        stroke-width: 0px;
      }

      .cls-2 {
        fill: #e3513e;
      }

      .cls-3 {
        fill: #6585c5;
      }
    </style>
  </defs>
  <path class="cls-3" d="m836.82,13.23c-28.79,4.71-57.15,10.66-85.05,17.77l257.9,962.51L836.82,13.23Z"/>
  <path class="cls-1" d="m751.77,31c-28.26,7.2-56.03,15.61-83.26,25.16l341.17,937.35L751.77,31Z"/>
  <path class="cls-3" d="m509.93,127.92c-25.41,14.3-50.12,29.67-74.09,46.06l573.83,819.52L509.93,127.92Z"/>
  <path class="cls-1" d="m587.68,88.54c-26.56,12.02-52.49,25.17-77.75,39.38l499.74,865.58L587.68,88.54Z"/>
  <path class="cls-2" d="m668.5,56.15c-27.51,9.65-54.47,20.46-80.82,32.39l421.99,904.96L668.5,56.15Z"/>
  <path class="cls-1" d="m1096.19,4.58c-28.51-2.71-57.36-4.24-86.52-4.51v993.44L1096.19,4.58Z"/>
  <path class="cls-1" d="m923.01,2.91c-29.1,2.21-57.84,5.67-86.18,10.31l172.85,980.27L923.01,2.91Z"/>
  <path class="cls-2" d="m1009.67.06C1006.45.03,1003.23,0,1000,0,974.09,0,948.42.98,923.01,2.91l86.67,990.59V.06Z"/>
  <path class="cls-1" d="m97.62,568.2c-12.6,26.32-24.08,53.28-34.39,80.82l946.45,344.48L97.62,568.2Z"/>
  <path class="cls-3" d="m63.23,649.02c-10.23,27.32-19.29,55.21-27.14,83.61l973.58,260.87L63.23,649.02Z"/>
  <path class="cls-1" d="m186.91,417.39c-17.01,23.71-33.02,48.2-47.95,73.4l870.71,502.71L186.91,417.39Z"/>
  <path class="cls-2" d="m138.96,490.79c-14.87,25.11-28.67,50.94-41.34,77.41l912.06,425.3L138.96,490.79Z"/>
  <path class="cls-1" d="m36.09,732.63c-7.76,28.1-14.33,56.7-19.65,85.74l993.24,175.13L36.09,732.63Z"/>
  <path class="cls-3" d="m241.02,348.52c-19.01,22.13-37.07,45.11-54.11,68.87l822.77,576.11L241.02,348.52Z"/>
  <path class="cls-2" d="m365.97,226.37c-22.55,18.5-44.28,37.95-65.11,58.32l708.81,708.81L365.97,226.37Z"/>
  <path class="cls-1" d="m300.86,284.69c-20.86,20.39-40.82,41.7-59.84,63.84l768.65,644.98L300.86,284.69Z"/>
  <path class="cls-1" d="m435.84,173.98c-24.07,16.46-47.38,33.94-69.87,52.39l643.7,767.13L435.84,173.98Z"/>
  <path class="cls-3" d="m1504.6,136.26c-24.8-14.51-50.28-27.97-76.38-40.34l-418.55,897.58,494.93-857.24Z"/>
  <path class="cls-3" d="m1939.09,655.22c-9.94-27.12-21.03-53.68-33.2-79.63l-896.21,417.91,929.41-338.28Z"/>
  <path class="cls-1" d="m1965.25,737.45c-7.56-27.92-16.3-55.35-26.16-82.23l-929.41,338.28,955.58-256.05Z"/>
  <path class="cls-1" d="m1905.89,575.59c-12.24-26.12-25.59-51.62-39.97-76.44l-856.25,494.36,896.21-417.91Z"/>
  <path class="cls-2" d="m1984.17,821.67c-5.12-28.51-11.45-56.6-18.93-84.21l-955.58,256.05,974.5-171.83Z"/>
  <path class="cls-1" d="m1996.85,1079.87c2.08-26.35,3.15-52.98,3.15-79.87,0-2.17-.03-4.33-.04-6.5h-990.29l987.18,86.37Z"/>
  <path class="cls-2" d="m1865.92,499.15c-14.44-24.94-29.93-49.19-46.41-72.7l-809.84,567.06,856.25-494.36Z"/>
  <path class="cls-1" d="m1995.75,907.23c-2.65-28.89-6.52-57.43-11.58-85.56l-974.5,171.83,986.08-86.27Z"/>
  <path class="cls-3" d="m1999.96,993.5c-.19-29.07-1.6-57.84-4.21-86.27l-986.08,86.27h990.29Z"/>
  <path class="cls-1" d="m1428.22,95.92c-25.95-12.3-52.51-23.51-79.63-33.58l-338.92,931.17L1428.22,95.92Z"/>
  <path class="cls-1" d="m1577.17,183.03c-23.46-16.6-47.67-32.2-72.57-46.77l-494.93,857.24L1577.17,183.03Z"/>
  <path class="cls-2" d="m16.44,818.37c-5.25,28.65-9.27,57.73-12.03,87.19l1005.26,87.95L16.44,818.37Z"/>
  <path class="cls-1" d="m1266.29,35.79c-27.65-7.61-55.79-14.06-84.35-19.3l-172.27,977.01L1266.29,35.79Z"/>
  <path class="cls-2" d="m1348.59,62.33c-26.9-9.99-54.35-18.86-82.3-26.55l-256.62,957.71L1348.59,62.33Z"/>
  <path class="cls-3" d="m1767.02,358.01c-18.48-22.06-37.88-43.31-58.17-63.69l-699.18,699.18,757.35-635.49Z"/>
  <path class="cls-2" d="m1645.42,235.84c-21.96-18.56-44.73-36.18-68.25-52.81l-567.5,810.47L1645.42,235.84Z"/>
  <path class="cls-1" d="m1819.51,426.45c-16.52-23.58-34.04-46.41-52.49-68.44l-757.35,635.49,809.84-567.06Z"/>
  <path class="cls-1" d="m1708.85,294.32c-20.29-20.38-41.45-39.9-63.43-58.48l-635.75,757.66,699.18-699.18Z"/>
  <path class="cls-3" d="m1181.94,16.49c-28.19-5.17-56.79-9.16-85.75-11.92l-86.52,988.92L1181.94,16.49Z"/>
  <path class="cls-1" d="m1433.19,1901.73c26.34-12.66,52.03-26.45,77.02-41.28l-500.53-866.94,423.51,908.23Z"/>
  <path class="cls-3" d="m1510.2,1860.44c25.08-14.89,49.44-30.85,73.04-47.8l-573.57-819.14,500.53,866.94Z"/>
  <path class="cls-1" d="m1583.24,1812.64c23.64-16.99,46.5-34.98,68.53-53.91l-642.1-765.23,573.57,819.14Z"/>
  <path class="cls-2" d="m1352.75,1936.11c27.4-10.32,54.24-21.79,80.43-34.38l-423.51-908.23,343.08,942.61Z"/>
  <path class="cls-1" d="m921.88,1996.99c25.78,1.99,51.83,3.01,78.12,3.01,3.23,0,6.45-.03,9.67-.06v-1006.44l-87.79,1003.49Z"/>
  <path class="cls-2" d="m1009.67,1999.94c29.54-.28,58.77-1.84,87.65-4.62l-87.65-1001.82v1006.44Z"/>
  <path class="cls-1" d="m4.41,905.55C1.7,934.52.23,963.86.04,993.5h1009.63L4.41,905.55Z"/>
  <path class="cls-3" d="m1184.16,1983.1c28.91-5.37,57.39-11.98,85.37-19.78l-259.86-969.81,174.49,989.6Z"/>
  <path class="cls-2" d="m1651.77,1758.73c22.03-18.94,43.24-38.82,63.54-59.58l-705.64-705.64,642.1,765.23Z"/>
  <path class="cls-1" d="m1269.53,1963.31c28.27-7.88,56.03-16.96,83.22-27.2l-343.08-942.61,259.86,969.81Z"/>
  <path class="cls-3" d="m1943.22,1333.28c9.56-27.11,18-54.75,25.24-82.88l-958.78-256.91,933.55,339.78Z"/>
  <path class="cls-1" d="m1968.46,1250.41c7.15-27.78,13.13-56.03,17.9-84.69l-976.69-172.22,958.78,256.91Z"/>
  <path class="cls-2" d="m1009.67,993.5l976.69,172.22c4.7-28.23,8.21-56.87,10.49-85.85l-987.18-86.37Z"/>
  <path class="cls-1" d="m1910.82,1413.71c11.92-26.22,22.74-53.05,32.4-80.43l-933.55-339.78,901.15,420.21Z"/>
  <path class="cls-1" d="m1715.31,1699.14c20.28-20.74,39.65-42.37,58.07-64.81l-763.71-640.83,705.64,705.64Z"/>
  <path class="cls-3" d="m1773.38,1634.33c18.37-22.38,35.79-45.58,52.19-69.53l-815.9-571.3,763.71,640.83Z"/>
  <path class="cls-2" d="m1871.51,1491.08c14.18-25.13,27.31-50.94,39.32-77.37l-901.15-420.21,861.83,497.58Z"/>
  <path class="cls-1" d="m1825.58,1564.8c16.34-23.85,31.67-48.44,45.93-73.72l-861.83-497.58,815.9,571.3Z"/>
  <path class="cls-1" d="m1097.32,1995.32c29.34-2.83,58.31-6.92,86.84-12.22l-174.49-989.6,87.65,1001.82Z"/>
  <path class="cls-1" d="m92.59,1421.14c12.44,26.78,26.02,52.91,40.69,78.34l876.39-505.98L92.59,1421.14Z"/>
  <path class="cls-3" d="m59.01,1339.51c10.02,27.8,21.23,55.04,33.57,81.63l917.08-427.64L59.01,1339.51Z"/>
  <path class="cls-1" d="m32.82,1255.25c7.52,28.61,16.27,56.72,26.19,84.26l950.66-346.01L32.82,1255.25Z"/>
  <path class="cls-2" d="m133.28,1499.48c14.74,25.55,30.59,50.38,47.46,74.44l828.93-580.42-876.39,505.98Z"/>
  <path class="cls-1" d="m180.75,1573.92c16.92,24.13,34.88,47.48,53.82,69.97l775.11-650.39L180.75,1573.92Z"/>
  <path class="cls-3" d="m.04,993.5c-.01,2.17-.04,4.33-.04,6.5,0,27.46,1.12,54.65,3.29,81.55l1006.38-88.05H.04Z"/>
  <path class="cls-1" d="m3.29,1081.55c2.38,29.54,6.04,58.72,10.92,87.48l995.46-175.53L3.29,1081.55Z"/>
  <path class="cls-2" d="m14.21,1169.03c4.96,29.19,11.18,57.95,18.61,86.22l976.85-261.75L14.21,1169.03Z"/>
  <path class="cls-1" d="m294.32,1708.85c20.85,20.75,42.61,40.59,65.22,59.45l650.13-774.8-715.35,715.35Z"/>
  <path class="cls-3" d="m234.56,1643.89c18.96,22.53,38.9,44.2,59.76,64.96l715.35-715.35L234.56,1643.89Z"/>
  <path class="cls-2" d="m664.32,1942.36c27.53,9.79,55.61,18.42,84.19,25.81l261.16-974.67-345.36,948.86Z"/>
  <path class="cls-1" d="m582.69,1909.17c26.6,12.22,53.83,23.3,81.63,33.19l345.36-948.86-426.98,915.67Z"/>
  <path class="cls-1" d="m748.51,1968.17c28.23,7.3,56.94,13.4,86.08,18.24l175.08-992.91-261.16,974.67Z"/>
  <path class="cls-3" d="m504.28,1868.87c25.46,14.54,51.62,27.99,78.41,40.3l426.98-915.67-505.4,875.37Z"/>
  <path class="cls-3" d="m834.6,1986.41c28.7,4.77,57.81,8.31,87.28,10.58l87.79-1003.49-175.08,992.91Z"/>
  <path class="cls-2" d="m359.54,1768.3c22.57,18.83,45.97,36.68,70.16,53.49l579.98-828.29-650.13,774.8Z"/>
  <path class="cls-1" d="m429.7,1821.79c24.11,16.75,48.99,32.46,74.58,47.08l505.4-875.37-579.98,828.29Z"/>
</svg>