<?xml version="1.0" encoding="UTF-8"?>
<svg id="Scene" xmlns="http://www.w3.org/2000/svg" viewBox="0 0 1000 1000">
  <defs>
    <style>
      .cls-1 {
        fill: #fdeebd;
      }

      .cls-1, .cls-2 {
        stroke-width: 0px;
      }

      .cls-2 {
        fill: #eb7e83;
      }
    </style>
  </defs>
  <g id="_Слой_14" data-name="Слой 14">
    <g>
      <path class="cls-2" d="m418.41,6.61c-14.39,2.36-28.58,5.33-42.53,8.88l128.95,481.25L418.41,6.61Z"/>
      <path class="cls-1" d="m375.88,15.5c-14.13,3.6-28.02,7.8-41.63,12.58l170.58,468.67L375.88,15.5Z"/>
      <path class="cls-2" d="m254.96,63.96c-12.7,7.15-25.06,14.84-37.04,23.03l286.92,409.76L254.96,63.96Z"/>
      <path class="cls-1" d="m293.84,44.27c-13.28,6.01-26.25,12.59-38.88,19.69l249.87,432.79L293.84,44.27Z"/>
      <path class="cls-2" d="m334.25,28.08c-13.76,4.82-27.24,10.23-40.41,16.19l211,452.48L334.25,28.08Z"/>
      <path class="cls-1" d="m548.1,2.29c-14.25-1.36-28.68-2.12-43.26-2.26v496.72L548.1,2.29Z"/>
      <path class="cls-1" d="m461.5,1.46c-14.55,1.11-28.92,2.84-43.09,5.16l86.42,490.14L461.5,1.46Z"/>
      <path class="cls-2" d="m504.84.03c-1.61-.02-3.22-.03-4.84-.03-12.95,0-25.79.49-38.5,1.46l43.33,495.29V.03Z"/>
      <path class="cls-1" d="m48.81,284.1c-6.3,13.16-12.04,26.64-17.19,40.41l473.22,172.24L48.81,284.1Z"/>
      <path class="cls-2" d="m31.61,324.51c-5.11,13.66-9.65,27.6-13.57,41.8l486.79,130.44L31.61,324.51Z"/>
      <path class="cls-1" d="m93.45,208.7c-8.51,11.86-16.51,24.1-23.97,36.7l435.36,251.35L93.45,208.7Z"/>
      <path class="cls-2" d="m69.48,245.4c-7.44,12.56-14.34,25.47-20.67,38.7l456.03,212.65L69.48,245.4Z"/>
      <path class="cls-1" d="m18.04,366.31c-3.88,14.05-7.17,28.35-9.83,42.87l496.62,87.57L18.04,366.31Z"/>
      <path class="cls-2" d="m120.51,174.26c-9.51,11.07-18.54,22.56-27.06,34.43l411.38,288.05L120.51,174.26Z"/>
      <path class="cls-2" d="m182.99,113.18c-11.27,9.25-22.14,18.98-32.56,29.16l354.41,354.41L182.99,113.18Z"/>
      <path class="cls-1" d="m150.43,142.34c-10.43,10.2-20.41,20.85-29.92,31.92l384.33,322.49L150.43,142.34Z"/>
      <path class="cls-1" d="m217.92,86.99c-12.03,8.23-23.69,16.97-34.93,26.19l321.85,383.57L217.92,86.99Z"/>
      <path class="cls-2" d="m752.3,68.13c-12.4-7.25-25.14-13.99-38.19-20.17l-209.27,448.79,247.46-428.62Z"/>
      <path class="cls-2" d="m969.54,327.61c-4.97-13.56-10.52-26.84-16.6-39.82l-448.11,208.96,464.71-169.14Z"/>
      <path class="cls-1" d="m982.62,368.73c-3.78-13.96-8.15-27.67-13.08-41.12l-464.71,169.14,477.79-128.02Z"/>
      <path class="cls-1" d="m952.94,287.79c-6.12-13.06-12.79-25.81-19.98-38.22l-428.12,247.18,448.11-208.96Z"/>
      <path class="cls-2" d="m992.09,410.83c-2.56-14.26-5.72-28.3-9.46-42.11l-477.79,128.02,487.25-85.92Z"/>
      <path class="cls-1" d="m998.43,539.93c1.04-13.17,1.57-26.49,1.57-39.93,0-1.08-.01-2.17-.02-3.25h-495.14l493.59,43.18Z"/>
      <path class="cls-2" d="m932.96,249.57c-7.22-12.47-14.97-24.59-23.2-36.35l-404.92,283.53,428.12-247.18Z"/>
      <path class="cls-1" d="m997.87,453.62c-1.33-14.45-3.26-28.72-5.79-42.78l-487.25,85.92,493.04-43.14Z"/>
      <path class="cls-2" d="m999.98,496.75c-.09-14.53-.8-28.92-2.1-43.14l-493.04,43.14h495.14Z"/>
      <path class="cls-1" d="m714.11,47.96c-12.97-6.15-26.26-11.76-39.82-16.79l-169.46,465.58L714.11,47.96Z"/>
      <path class="cls-1" d="m788.59,91.51c-11.73-8.3-23.84-16.1-36.29-23.38l-247.46,428.62L788.59,91.51Z"/>
      <path class="cls-2" d="m8.22,409.18c-2.62,14.33-4.64,28.87-6.01,43.59l502.63,43.97L8.22,409.18Z"/>
      <path class="cls-1" d="m633.15,17.89c-13.83-3.8-27.89-7.03-42.17-9.65l-86.14,488.5L633.15,17.89Z"/>
      <path class="cls-2" d="m674.29,31.17c-13.45-5-27.18-9.43-41.15-13.27l-128.31,478.86L674.29,31.17Z"/>
      <path class="cls-2" d="m883.51,179c-9.24-11.03-18.94-21.66-29.09-31.84l-349.59,349.59,378.68-317.75Z"/>
      <path class="cls-2" d="m822.71,117.92c-10.98-9.28-22.37-18.09-34.13-26.41l-283.75,405.24L822.71,117.92Z"/>
      <path class="cls-1" d="m909.76,213.22c-8.26-11.79-17.02-23.21-26.24-34.22l-378.68,317.75,404.92-283.53Z"/>
      <path class="cls-1" d="m854.43,147.16c-10.15-10.19-20.72-19.95-31.71-29.24l-317.88,378.83,349.59-349.59Z"/>
      <path class="cls-2" d="m590.97,8.25c-14.09-2.59-28.39-4.58-42.88-5.96l-43.26,494.46L590.97,8.25Z"/>
      <path class="cls-1" d="m716.59,950.86c13.17-6.33,26.01-13.22,38.51-20.64l-250.26-433.47,211.76,454.11Z"/>
      <path class="cls-2" d="m755.1,930.22c12.54-7.44,24.72-15.42,36.52-23.9l-286.78-409.57,250.26,433.47Z"/>
      <path class="cls-1" d="m791.62,906.32c11.82-8.49,23.25-17.49,34.27-26.96l-321.05-382.61,286.78,409.57Z"/>
      <path class="cls-2" d="m676.38,968.06c13.7-5.16,27.12-10.9,40.22-17.19l-211.76-454.11,171.54,471.31Z"/>
      <path class="cls-1" d="m460.94,998.5c12.89.99,25.91,1.5,39.06,1.5,1.61,0,3.23-.02,4.84-.03v-503.22l-43.9,501.75Z"/>
      <path class="cls-2" d="m504.84,999.97c14.77-.14,29.39-.92,43.82-2.31l-43.82-500.91v503.22Z"/>
      <path class="cls-1" d="m2.21,452.78C.85,467.26.11,481.93.02,496.75h504.82L2.21,452.78Z"/>
      <path class="cls-2" d="m592.08,991.55c14.46-2.69,28.69-5.99,42.68-9.89l-129.93-484.91,87.25,494.8Z"/>
      <path class="cls-2" d="m825.89,879.36c11.02-9.47,21.62-19.41,31.77-29.79l-352.82-352.82,321.05,382.61Z"/>
      <path class="cls-1" d="m634.77,981.66c14.13-3.94,28.01-8.48,41.61-13.6l-171.54-471.31,129.93,484.91Z"/>
      <path class="cls-2" d="m971.61,666.64c4.78-13.55,9-27.38,12.62-41.44l-479.39-128.45,466.77,169.89Z"/>
      <path class="cls-1" d="m984.23,625.2c3.57-13.89,6.57-28.01,8.95-42.34l-488.34-86.11,479.39,128.45Z"/>
      <path class="cls-2" d="m504.84,496.75l488.34,86.11c2.35-14.12,4.1-28.43,5.25-42.92l-493.59-43.18Z"/>
      <path class="cls-1" d="m955.41,706.86c5.96-13.11,11.37-26.53,16.2-40.21l-466.77-169.89,450.58,210.11Z"/>
      <path class="cls-1" d="m857.66,849.57c10.14-10.37,19.82-21.19,29.03-32.41l-381.86-320.41,352.82,352.82Z"/>
      <path class="cls-2" d="m886.69,817.17c9.19-11.19,17.89-22.79,26.1-34.76l-407.95-285.65,381.86,320.41Z"/>
      <path class="cls-2" d="m935.75,745.54c7.09-12.57,13.65-25.47,19.66-38.68l-450.58-210.11,430.92,248.79Z"/>
      <path class="cls-1" d="m912.79,782.4c8.17-11.92,15.83-24.22,22.97-36.86l-430.92-248.79,407.95,285.65Z"/>
      <path class="cls-1" d="m548.66,997.66c14.67-1.41,29.15-3.46,43.42-6.11l-87.25-494.8,43.82,500.91Z"/>
      <path class="cls-1" d="m46.29,710.57c6.22,13.39,13.01,26.46,20.35,39.17l438.2-252.99L46.29,710.57Z"/>
      <path class="cls-2" d="m29.51,669.76c5.01,13.9,10.61,27.52,16.79,40.82l458.54-213.82L29.51,669.76Z"/>
      <path class="cls-1" d="m16.41,627.62c3.76,14.31,8.13,28.36,13.1,42.13l475.33-173.01L16.41,627.62Z"/>
      <path class="cls-2" d="m66.64,749.74c7.37,12.78,15.3,25.19,23.73,37.22l414.46-290.21-438.2,252.99Z"/>
      <path class="cls-1" d="m90.37,786.96c8.46,12.06,17.44,23.74,26.91,34.99l387.55-325.2L90.37,786.96Z"/>
      <path class="cls-2" d="m.02,496.75c0,1.08-.02,2.16-.02,3.25,0,13.73.56,27.33,1.64,40.77l503.19-44.02H.02Z"/>
      <path class="cls-1" d="m1.64,540.77c1.19,14.77,3.02,29.36,5.46,43.74l497.73-87.76L1.64,540.77Z"/>
      <path class="cls-2" d="m7.11,584.51c2.48,14.6,5.59,28.98,9.3,43.11l488.43-130.87L7.11,584.51Z"/>
      <path class="cls-1" d="m147.16,854.43c10.42,10.38,21.31,20.29,32.61,29.72l325.07-387.4-357.68,357.68Z"/>
      <path class="cls-2" d="m117.28,821.95c9.48,11.26,19.45,22.1,29.88,32.48l357.68-357.68L117.28,821.95Z"/>
      <path class="cls-2" d="m332.16,971.18c13.76,4.9,27.81,9.21,42.1,12.91l130.58-487.33-172.68,474.43Z"/>
      <path class="cls-1" d="m291.34,954.59c13.3,6.11,26.91,11.65,40.81,16.59l172.68-474.43-213.49,457.83Z"/>
      <path class="cls-1" d="m374.26,984.08c14.11,3.65,28.47,6.7,43.04,9.12l87.54-496.46-130.58,487.33Z"/>
      <path class="cls-2" d="m252.14,934.44c12.73,7.27,25.81,14,39.21,20.15l213.49-457.83-252.7,437.69Z"/>
      <path class="cls-2" d="m417.3,993.21c14.35,2.38,28.91,4.16,43.64,5.29l43.9-501.75-87.54,496.46Z"/>
      <path class="cls-2" d="m179.77,884.15c11.28,9.41,22.98,18.34,35.08,26.75l289.99-414.15-325.07,387.4Z"/>
      <path class="cls-1" d="m214.85,910.9c12.05,8.38,24.49,16.23,37.29,23.54l252.7-437.69-289.99,414.15Z"/>
    </g>
  </g>
</svg>