<?xml version="1.0" encoding="UTF-8"?>
<svg id="Duck" xmlns="http://www.w3.org/2000/svg" viewBox="0 0 1500 1500">
  <defs>
    <style>
      .cls-1 {
        fill: #fdeebd;
      }

      .cls-1, .cls-2, .cls-3, .cls-4, .cls-5, .cls-6 {
        stroke-width: 0px;
      }

      .cls-2 {
        fill: #f20d21;
      }

      .cls-7 {
        fill: none;
        stroke: #fdeebd;
      }

      .cls-7, .cls-8 {
        stroke-miterlimit: 10;
        stroke-width: 5px;
      }

      .cls-3 {
        fill: #fca322;
      }

      .cls-3, .cls-4, .cls-5, .cls-6 {
        opacity: .95;
      }

      .cls-4 {
        fill: #ce761e;
      }

      .cls-5 {
        fill: #2d1907;
      }

      .cls-8 {
        fill: #ecf5f5;
        stroke: #f20d21;
      }

      .cls-6 {
        fill: #ea2f21;
      }
    </style>
  </defs>
  <path class="cls-6" d="m1413.26,750.85c-3.38,24.32-60.87,149.19-70.29,185.42-9.42,36.25-109.42,221.26-173.18,264.72-63.77,43.49-243.47,111.11-471.49,106.29-228-4.85-516.87-71.51-492.72-342.02,19.7-220.61,155.55-270.52,168.1-302.39,0,0-29.69-48.15-47.34-54.46-3.76-1.33-7.06-2.55-10.14-3.63-.34-.14-.68-.25-1.01-.36-14.74-5.09-25.16-7.08-58.39-5.79-37.69,1.44-114.86,31.15-132.62-9.06-10.12-22.97,62.49-49.64,54.35-63.39-26.58-44.91-126.81-113.05-73.9-145.65,14.31-8.84,46.42,32.44,91.68,34.78h.07c10.51.54,21.73-1.01,33.59-5.79,8.66-3.47,15.83-7.73,21.89-12.67,40.4-32.78,30.91-94.93,73.76-150.39,49.28-63.75,164.5-160.12,307.96-129.69,143.46,30.43,178.25,100.72,213.75,102.17s73.17-35.51,86.23-27.53c13.05,7.96,16.66,52.16-31.88,86.23,0,0,34.99-2.91,41.05,7.96,6.04,10.87-19.32,39.13-33.09,47.09-13.75,7.98-36.14-.9-34.78,3.63,3.54,11.81,55.52,91.87,8.95,205.8-24.87,60.85-149.51,141.3-139.36,147.82s74.62-11.59,150.7,5.79,187.67,83.82,250.48,79.71c47.34-3.11,94.03-42.74,142.02-85.51,37.58-33.5,60.1-74.64,72.23-75.61,20.45-1.65,19.64,28.99,16.91,44.93-3.76,22-13.3,38.64-7.01,39.86,8.59,1.65,17.74-30.82,33.57-25.83,13.05,4.1,13.1,54.73,9.92,77.59Z"/>
  <g id="_Слой_4" data-name="Слой 4">
    <path class="cls-3" d="m317.93,603.51c-.54.43-1.13.83-1.74,1.26-.34-.14-.68-.25-1.01-.36-14.74-5.09-25.16-7.08-58.39-5.79-37.69,1.44-114.86,31.15-132.62-9.06-9.45-21.42,53.07-46.06,54.94-60.44.14-1.04-.04-2.03-.59-2.95-26.58-44.91-126.81-113.05-73.9-145.65,14.31-8.84,46.42,32.44,91.68,34.78h.07c10.73,1.1,21.96-.09,33.59-4.76,8.66-3.47,15.83-7.73,21.89-12.67,11.27,33.23,28.4,71.71,52.75,87.29,15.62,9.99,29.98,26.01,37.06,44.16,9.4,23.96,6.09,51.65-23.74,74.19Z"/>
  </g>
  <g id="_Слой_8" data-name="Слой 8">
    <path class="cls-4" d="m317.93,603.51c-.54.43-1.13.83-1.74,1.26-.34-.14-.68-.25-1.01-.36-14.74-5.09-25.16-7.08-58.39-5.79-37.69,1.44-114.86,31.15-132.62-9.06-9.45-21.42,53.07-46.06,54.94-60.44,0,0,48.24,19.16,88.55,17.31,33.34-1.53,58.77-13.35,74.01-17.11,9.4,23.96,6.09,51.65-23.74,74.19Z"/>
  </g>
  <g id="_Слой_5" data-name="Слой 5">
    <ellipse class="cls-5" cx="422.67" cy="378.06" rx="66.66" ry="49.53" transform="translate(-82.3 636.08) rotate(-68.88)"/>
  </g>
  <g id="_Слой_5_копия_" data-name="Слой 5 (копия)">
    <ellipse class="cls-1" cx="447.72" cy="360.85" rx="21.94" ry="15.9" transform="translate(-15.41 701.7) rotate(-75.22)"/>
  </g>
  <g id="_Слой_6" data-name="Слой 6">
    <path class="cls-7" d="m531.42,901.49c21.74-47.82,94.56-97.1,175.53-81.16,80.98,15.94,153.44,62.32,231.69,53.62,78.26-8.7,72.46,1.45,118.83-23.19,46.37-24.64,57.97-55.39,79.71-24.8,21.74,30.59-18.84,192.9-165.21,176.96,0,0,94.2,4.35,108.69.48s-76.32,147.34-212.07,85.5c0,0,44.93,25.12,64.25,25.12s-186.46,95.16-322.69-12.08c-136.22-107.24-78.74-200.47-78.74-200.47Z"/>
  </g>
  <g id="_Слой_9_копия_" data-name="Слой 9 (копия)">
    <g>
      <circle class="cls-8" cx="648.8" cy="964.92" r="188.06"/>
      <circle class="cls-2" cx="648.8" cy="964.92" r="103.42"/>
    </g>
  </g>
</svg>