<?xml version="1.0" encoding="UTF-8"?>
<svg id="Duck" xmlns="http://www.w3.org/2000/svg" viewBox="0 0 1500 1500">
  <defs>
    <style>
      .cls-1 {
        fill: #fdeebd;
      }

      .cls-1, .cls-2, .cls-3, .cls-4, .cls-5, .cls-6 {
        stroke-width: 0px;
      }

      .cls-2 {
        fill: #ce761e;
      }

      .cls-2, .cls-4, .cls-5, .cls-6 {
        opacity: .95;
      }

      .cls-7 {
        opacity: .97;
      }

      .cls-3 {
        fill: #f20d21;
      }

      .cls-4 {
        fill: #ea2f21;
      }

      .cls-5 {
        fill: #2d1907;
      }

      .cls-8 {
        fill: #ecf5f5;
        stroke: #f20d21;
        stroke-miterlimit: 10;
        stroke-width: 5px;
      }

      .cls-6 {
        fill: #fca322;
      }
    </style>
  </defs>
  <path class="cls-4" d="m1413.26,750.85c-3.38,24.32-60.87,149.19-70.29,185.42-9.42,36.25-109.42,221.26-173.18,264.72-63.77,43.49-243.47,111.11-471.49,106.29-228-4.85-516.87-71.51-492.72-342.02,19.7-220.61,155.55-270.52,168.1-302.39,0,0-29.69-48.15-47.34-54.46-3.76-1.33-7.06-2.55-10.14-3.63-.34-.14-.68-.25-1.01-.36-14.74-5.09-25.16-7.08-58.39-5.79-37.69,1.44-114.86,31.15-132.62-9.06-10.12-22.97,62.49-49.64,54.35-63.39-26.58-44.91-126.81-113.05-73.9-145.65,14.31-8.84,46.42,32.44,91.68,34.78h.07c10.51.54,21.73-1.01,33.59-5.79,8.66-3.47,15.83-7.73,21.89-12.67,40.4-32.78,30.91-94.93,73.76-150.39,49.28-63.75,164.5-160.12,307.96-129.69,143.46,30.43,178.25,100.72,213.75,102.17s73.17-35.51,86.23-27.53c13.05,7.96,16.66,52.16-31.88,86.23,0,0,34.99-2.91,41.05,7.96,6.04,10.87-19.32,39.13-33.09,47.09-13.75,7.98-36.14-.9-34.78,3.63,3.54,11.81,55.52,91.87,8.95,205.8-24.87,60.85-149.51,141.3-139.36,147.82,10.14,6.51,74.62-11.59,150.7,5.79,76.08,17.38,187.67,83.82,250.48,79.71,47.34-3.11,94.03-42.74,142.02-85.51,37.58-33.5,60.1-74.64,72.23-75.61,20.45-1.65,19.64,28.99,16.91,44.93-3.76,22-13.3,38.64-7.01,39.86,8.59,1.65,17.74-30.82,33.57-25.83,13.05,4.1,13.1,54.73,9.92,77.59Z"/>
  <g id="_Слой_4" data-name="Слой 4">
    <path class="cls-6" d="m317.93,603.51c-.54.43-1.13.83-1.74,1.26-.34-.14-.68-.25-1.01-.36-14.74-5.09-25.16-7.08-58.39-5.79-37.69,1.44-114.86,31.15-132.62-9.06-9.45-21.42,53.07-46.06,54.94-60.44.14-1.04-.04-2.03-.59-2.95-26.58-44.91-126.81-113.05-73.9-145.65,14.31-8.84,46.42,32.44,91.68,34.78h.07c10.73,1.1,21.96-.09,33.59-4.76,8.66-3.47,15.83-7.73,21.89-12.67,11.27,33.23,28.4,71.71,52.75,87.29,15.62,9.99,29.98,26.01,37.06,44.16,9.4,23.96,6.09,51.65-23.74,74.19Z"/>
  </g>
  <g id="_Слой_8" data-name="Слой 8">
    <path class="cls-2" d="m317.93,603.51c-.54.43-1.13.83-1.74,1.26-.34-.14-.68-.25-1.01-.36-14.74-5.09-25.16-7.08-58.39-5.79-37.69,1.44-114.86,31.15-132.62-9.06-9.45-21.42,53.07-46.06,54.94-60.44,0,0,48.24,19.16,88.55,17.31,33.34-1.53,58.77-13.35,74.01-17.11,9.4,23.96,6.09,51.65-23.74,74.19Z"/>
  </g>
  <g id="_Слой_5" data-name="Слой 5">
    <ellipse class="cls-5" cx="422.67" cy="378.06" rx="66.66" ry="49.53" transform="translate(-82.3 636.08) rotate(-68.88)"/>
  </g>
  <g id="_Слой_5_копия_" data-name="Слой 5 (копия)">
    <ellipse class="cls-1" cx="447.72" cy="360.85" rx="21.94" ry="15.9" transform="translate(-15.41 701.7) rotate(-75.22)"/>
  </g>
  <g id="_Слой_6" data-name="Слой 6">
    <g class="cls-7">
      <path class="cls-1" d="m771.16,1156.45c-50.68,0-111.47-11.03-163.17-51.73-31.42-24.74-55.19-50.83-70.64-77.56-12.45-21.54-19.56-43.54-21.14-65.38-2.61-36.03,10.58-59.36,12.1-61.91,11.59-25.35,36.63-49.99,67.02-65.95,24.71-12.98,64.24-26.46,112.28-17,30.13,5.93,59.24,16.1,87.39,25.92,48.68,17,94.66,33.05,143.24,27.65,24.2-2.69,40.59-3.59,52.56-4.26,27.16-1.5,33.61-1.86,65.02-18.54,14.55-7.73,25.76-16.18,34.76-22.96,12.57-9.47,21.66-16.33,31.28-14.83,6.26.97,12.03,5.44,18.16,14.06,11.66,16.41,7.1,64.61-18.09,107.54-13.47,22.95-40.13,56.3-86.11,69.92,20.46.29,38.58.06,43.93-1.37,2.54-.68,4.33.53,5.17,1.88.76,1.23,2.54,4.09-4.63,16.49-4.51,7.79-11.14,16.79-18.68,25.37-12.56,14.28-39.21,40.29-76.51,54.13-23.67,8.78-47.8,11.43-72.13,7.94,7.63,2.77,14.76,4.7,19.86,4.7,3.34,0,4.33,2.01,4.59,2.88.98,3.14-2.14,5.29-3.48,6.2-12.64,8.7-63.8,28.49-124.75,34.82-11.72,1.22-24.53,2-38.06,2Zm-236.76-253.12h0c-.14.23-13.86,23.1-11.17,58.39,3.57,46.88,34.37,94.42,89.09,137.5,65.68,51.7,146.73,54.35,203.16,47.47,52.89-6.45,94.62-22.31,109.73-30.03-21.89-4.41-56.67-23.75-58.32-24.68l3.16-6.24c62.99,28.69,114.44,9.44,146.5-11.75,21.8-14.41,37.18-31.09,46.24-42.54,8.78-11.09,13.52-19.66,15.19-24-14.49,1.84-53.83.92-80.37,0-8.22.27-16.88-.04-26.01-1.03l.54-6.98c6.32.29,15.23.66,25.27,1,66.76-2.3,102.45-45.15,118.51-72.5,25.07-42.71,27.62-86.99,18.42-99.94-4.96-6.98-9.26-10.54-13.53-11.2-6.69-1.05-14.79,5.06-25.99,13.5-9.2,6.93-20.65,15.57-35.69,23.56-32.77,17.41-40.22,17.82-67.92,19.35-11.89.66-28.17,1.56-52.17,4.22-50.16,5.57-96.87-10.74-146.32-28-27.92-9.75-56.79-19.83-86.44-25.66-46.04-9.06-83.97,3.88-107.68,16.33-29.14,15.3-53.06,38.8-63.99,62.84l-.2.38Z"/>
    </g>
  </g>
  <g id="_Слой_9_копия_" data-name="Слой 9 (копия)">
    <g>
      <circle class="cls-8" cx="648.8" cy="964.92" r="188.06"/>
      <circle class="cls-3" cx="648.8" cy="964.92" r="103.42"/>
    </g>
  </g>
</svg>