<?xml version="1.0" encoding="UTF-8"?>
<svg id="Curtains" xmlns="http://www.w3.org/2000/svg" viewBox="0 0 783.06 778.82">
  <defs>
    <style>
      .cls-1 {
        fill: #f20d21;
      }

      .cls-1, .cls-2 {
        stroke-width: 0px;
      }

      .cls-2 {
        fill: #f2d42f;
      }
    </style>
  </defs>
  <path class="cls-1" d="m784.53,233.52v545.3h-70.26V249.91c0-2.91-.07-5.8-.2-8.67-.58-11.99-2.33-23.67-5.14-34.93-2.86-11.46-6.83-22.49-11.78-32.96-4.99-10.56-10.99-20.56-17.86-29.88-6.89-9.34-14.67-17.99-23.2-25.83-8.5-7.82-17.77-14.83-27.67-20.91-9.81-6.04-20.24-11.17-31.18-15.26h-.01c-10.77-4.04-22.02-7.08-33.65-9.01-9.73-1.62-19.72-2.46-29.91-2.46H249.38c-4.37,0-8.7.15-12.99.46-12.23.86-24.12,2.94-35.55,6.12-11.65,3.23-22.83,7.59-33.4,12.96-10.68,5.43-20.75,11.89-30.07,19.24-9.36,7.38-17.97,15.67-25.71,24.74-7.72,9.06-14.56,18.89-20.38,29.37-5.78,10.41-10.56,21.45-14.2,32.99-3.6,11.38-6.09,23.25-7.34,35.49-.63,6.09-.95,12.28-.95,18.54v528.91H-1.47V233.52c0-14.05,1.24-27.8,3.63-41.16,2.53-14.16,6.34-27.88,11.3-41.03,5.04-13.35,11.27-26.12,18.56-38.17,7.35-12.15,15.77-23.57,25.14-34.14,9.38-10.59,19.71-20.32,30.86-29.06,11.09-8.7,22.99-16.43,35.57-23.05,12.44-6.55,25.54-12.01,39.18-16.27,13.38-4.18,27.27-7.19,41.56-8.91h.01l28.58-1.73h317.22c1.34,0,2.68.01,4.01.04,14.07.23,27.83,1.7,41.19,4.3h0c13.73,2.67,27.02,6.54,39.78,11.49,12.97,5.03,25.38,11.18,37.11,18.32,11.84,7.21,22.98,15.44,33.31,24.56,10.35,9.14,19.89,19.18,28.49,30.01,8.57,10.79,16.2,22.35,22.78,34.56,6.51,12.09,11.99,24.83,16.3,38.08,4.25,13.01,7.37,26.53,9.27,40.44,1.41,10.37,2.14,20.96,2.14,31.72Z"/>
  <ellipse class="cls-2" cx="32.08" cy="763.82" rx="7.53" ry="7.5"/>
  <ellipse class="cls-2" cx="32.08" cy="733.2" rx="7.53" ry="7.5"/>
  <ellipse class="cls-2" cx="32.08" cy="702.57" rx="7.53" ry="7.5"/>
  <ellipse class="cls-2" cx="32.08" cy="671.95" rx="7.53" ry="7.5"/>
  <ellipse class="cls-2" cx="32.08" cy="641.32" rx="7.53" ry="7.5"/>
  <ellipse class="cls-2" cx="32.08" cy="610.7" rx="7.53" ry="7.5"/>
  <ellipse class="cls-2" cx="32.08" cy="580.08" rx="7.53" ry="7.5"/>
  <ellipse class="cls-2" cx="32.08" cy="549.45" rx="7.53" ry="7.5"/>
  <ellipse class="cls-2" cx="32.08" cy="518.83" rx="7.53" ry="7.5"/>
  <ellipse class="cls-2" cx="32.08" cy="488.2" rx="7.53" ry="7.5"/>
  <ellipse class="cls-2" cx="32.08" cy="457.58" rx="7.53" ry="7.5"/>
  <ellipse class="cls-2" cx="32.08" cy="426.95" rx="7.53" ry="7.5"/>
  <ellipse class="cls-2" cx="32.08" cy="396.33" rx="7.53" ry="7.5"/>
  <ellipse class="cls-2" cx="32.08" cy="365.71" rx="7.53" ry="7.5"/>
  <ellipse class="cls-2" cx="32.08" cy="335.08" rx="7.53" ry="7.5"/>
  <ellipse class="cls-2" cx="32.08" cy="304.46" rx="7.53" ry="7.5"/>
  <ellipse class="cls-2" cx="32.08" cy="273.83" rx="7.53" ry="7.5"/>
  <g>
    <g>
      <ellipse class="cls-2" cx="618.31" cy="54.41" rx="7.53" ry="7.5"/>
      <ellipse class="cls-2" cx="647.61" cy="72.15" rx="7.53" ry="7.5"/>
    </g>
    <g>
      <ellipse class="cls-2" cx="677.38" cy="89.89" rx="7.53" ry="7.5" transform="translate(-.17 1.26) rotate(-.11)"/>
      <ellipse class="cls-2" cx="699.32" cy="116.15" rx="7.53" ry="7.5" transform="translate(-.22 1.31) rotate(-.11)"/>
      <ellipse class="cls-2" cx="721.26" cy="142.4" rx="7.53" ry="7.5" transform="translate(-.26 1.35) rotate(-.11)"/>
    </g>
    <g>
      <ellipse class="cls-2" cx="737.36" cy="175.83" rx="7.53" ry="7.5"/>
      <ellipse class="cls-2" cx="743.06" cy="209.52" rx="7.53" ry="7.5"/>
      <ellipse class="cls-2" cx="748.75" cy="243.21" rx="7.53" ry="7.5"/>
    </g>
  </g>
  <ellipse class="cls-2" cx="164.36" cy="45.73" rx="7.53" ry="7.5"/>
  <ellipse class="cls-2" cx="197.92" cy="38.02" rx="7.53" ry="7.5"/>
  <g>
    <ellipse class="cls-2" cx="235.99" cy="36.73" rx="7.53" ry="7.5"/>
    <ellipse class="cls-2" cx="267.41" cy="36.73" rx="7.53" ry="7.5"/>
    <ellipse class="cls-2" cx="298.83" cy="36.73" rx="7.53" ry="7.5"/>
    <ellipse class="cls-2" cx="330.26" cy="36.73" rx="7.53" ry="7.5"/>
    <ellipse class="cls-2" cx="361.68" cy="36.73" rx="7.53" ry="7.5"/>
    <ellipse class="cls-2" cx="393.11" cy="36.73" rx="7.53" ry="7.5"/>
    <ellipse class="cls-2" cx="424.53" cy="36.73" rx="7.53" ry="7.5"/>
    <ellipse class="cls-2" cx="455.96" cy="36.73" rx="7.53" ry="7.5"/>
    <ellipse class="cls-2" cx="487.38" cy="36.73" rx="7.53" ry="7.5"/>
    <ellipse class="cls-2" cx="518.8" cy="36.73" rx="7.53" ry="7.5"/>
    <ellipse class="cls-2" cx="550.23" cy="36.73" rx="7.53" ry="7.5"/>
  </g>
  <ellipse class="cls-2" cx="585.07" cy="42.52" rx="7.53" ry="7.5"/>
  <ellipse class="cls-2" cx="135.06" cy="63.47" rx="7.53" ry="7.5"/>
  <g>
    <ellipse class="cls-2" cx="105.29" cy="81.21" rx="7.5" ry="7.53" transform="translate(23.88 186.34) rotate(-89.89)"/>
    <ellipse class="cls-2" cx="83.35" cy="107.46" rx="7.5" ry="7.53" transform="translate(-24.27 190.61) rotate(-89.89)"/>
    <ellipse class="cls-2" cx="61.4" cy="133.72" rx="7.5" ry="7.53" transform="translate(-72.43 194.87) rotate(-89.89)"/>
  </g>
  <g>
    <ellipse class="cls-2" cx="45.31" cy="167.15" rx="7.53" ry="7.5"/>
    <ellipse class="cls-2" cx="39.61" cy="200.84" rx="7.53" ry="7.5"/>
    <ellipse class="cls-2" cx="33.92" cy="234.52" rx="7.53" ry="7.5"/>
  </g>
  <g>
    <ellipse class="cls-2" cx="748.75" cy="763.82" rx="7.53" ry="7.5"/>
    <ellipse class="cls-2" cx="748.75" cy="733.2" rx="7.53" ry="7.5"/>
    <ellipse class="cls-2" cx="748.75" cy="702.57" rx="7.53" ry="7.5"/>
    <ellipse class="cls-2" cx="748.75" cy="671.95" rx="7.53" ry="7.5"/>
    <ellipse class="cls-2" cx="748.75" cy="641.32" rx="7.53" ry="7.5"/>
    <ellipse class="cls-2" cx="748.75" cy="610.7" rx="7.53" ry="7.5"/>
    <ellipse class="cls-2" cx="748.75" cy="580.08" rx="7.53" ry="7.5"/>
    <ellipse class="cls-2" cx="748.75" cy="549.45" rx="7.53" ry="7.5"/>
    <ellipse class="cls-2" cx="748.75" cy="518.83" rx="7.53" ry="7.5"/>
    <ellipse class="cls-2" cx="748.75" cy="488.2" rx="7.53" ry="7.5"/>
    <ellipse class="cls-2" cx="748.75" cy="457.58" rx="7.53" ry="7.5"/>
    <ellipse class="cls-2" cx="748.75" cy="426.95" rx="7.53" ry="7.5"/>
    <ellipse class="cls-2" cx="748.75" cy="396.33" rx="7.53" ry="7.5"/>
    <ellipse class="cls-2" cx="748.75" cy="365.71" rx="7.53" ry="7.5"/>
    <ellipse class="cls-2" cx="748.75" cy="335.08" rx="7.53" ry="7.5"/>
    <ellipse class="cls-2" cx="748.75" cy="304.46" rx="7.53" ry="7.5"/>
    <ellipse class="cls-2" cx="748.75" cy="273.83" rx="7.53" ry="7.5"/>
    <ellipse class="cls-2" cx="748.75" cy="243.21" rx="7.53" ry="7.5"/>
  </g>
</svg>