<?xml version="1.0" encoding="UTF-8"?>
<svg id="Text-area" xmlns="http://www.w3.org/2000/svg" viewBox="0 0 360 160">
  <defs>
    <style>
      .cls-1 {
        fill: #fdeebd;
      }

      .cls-1, .cls-2 {
        stroke-width: 0px;
      }

      .cls-2 {
        fill: #f2d42f;
      }
    </style>
  </defs>
  <path class="cls-1" d="m35.01,155c-3.08-9.59-14.92-16.83-30.01-18.15V23.85c15.1-1.32,26.93-8.57,30.01-18.16h289.97c3.08,9.59,14.92,16.83,30.02,18.16v113c-15.1,1.32-26.93,8.56-30.02,18.15H35.01Z"/>
  <path class="cls-2" d="m321.68,10.69c2.32,4.48,6.22,8.48,11.41,11.58,4.84,2.89,10.64,4.92,16.9,5.97v104.21c-6.26,1.05-12.06,3.08-16.9,5.97-5.19,3.1-9.09,7.09-11.41,11.58H38.31c-2.33-4.48-6.22-8.48-11.41-11.58-4.84-2.89-10.64-4.92-16.9-5.97V28.24c6.26-1.05,12.06-3.08,16.9-5.97,5.2-3.1,9.09-7.1,11.41-11.58h283.37m7.51-10H30.8C30.8,10.84,17.01,19.06,0,19.06v122.57c17.01,0,30.8,8.23,30.8,18.37h298.39c0-10.14,13.79-18.37,30.8-18.37V19.06c-17.01,0-30.8-8.23-30.8-18.37h0Z"/>
</svg>