<?xml version="1.0" encoding="UTF-8"?>
<svg id="Target" xmlns="http://www.w3.org/2000/svg" viewBox="0 0 400 400">
  <defs>
    <style>
      .cls-1 {
        fill: #0c1e3a;
        stroke-width: 0px;
      }

      .cls-2 {
        fill: none;
        stroke: #0c1e3a;
        stroke-miterlimit: 10;
        stroke-width: 14px;
      }
    </style>
  </defs>
  <path class="cls-1" d="m200,57.77c37.99,0,73.71,14.79,100.57,41.66,26.86,26.86,41.66,62.58,41.66,100.57s-14.79,73.71-41.66,100.57c-26.86,26.86-62.58,41.66-100.57,41.66s-73.71-14.79-100.57-41.66c-26.86-26.86-41.66-62.58-41.66-100.57s14.79-73.71,41.66-100.57c26.86-26.86,62.58-41.66,100.57-41.66m0,245.59c56.99,0,103.36-46.37,103.36-103.36s-46.37-103.36-103.36-103.36-103.36,46.37-103.36,103.36,46.37,103.36,103.36,103.36m0-259.59c-86.28,0-156.23,69.95-156.23,156.23s69.95,156.23,156.23,156.23,156.23-69.95,156.23-156.23S286.28,43.77,200,43.77h0Zm0,245.59c-49.35,0-89.36-40.01-89.36-89.36s40.01-89.36,89.36-89.36,89.36,40.01,89.36,89.36-40.01,89.36-89.36,89.36h0Z"/>
  <path class="cls-1" d="m200,14c49.68,0,96.39,19.35,131.52,54.48,35.13,35.13,54.48,81.84,54.48,131.52s-19.35,96.39-54.48,131.52c-35.13,35.13-81.84,54.48-131.52,54.48s-96.39-19.35-131.52-54.48c-35.13-35.13-54.48-81.84-54.48-131.52s19.35-96.39,54.48-131.52S150.32,14,200,14m0,289.36c56.99,0,103.36-46.37,103.36-103.36s-46.37-103.36-103.36-103.36-103.36,46.37-103.36,103.36,46.37,103.36,103.36,103.36M200,0C89.54,0,0,89.54,0,200s89.54,200,200,200,200-89.54,200-200S310.46,0,200,0h0Zm0,289.36c-49.35,0-89.36-40.01-89.36-89.36s40.01-89.36,89.36-89.36,89.36,40.01,89.36,89.36-40.01,89.36-89.36,89.36h0Z"/>
  <polyline class="cls-2" points="0 200 43.77 200 110.64 200"/>
  <polyline class="cls-2" points="400 200 356.23 200 289.36 200"/>
  <polyline class="cls-2" points="200 289.36 200 356.23 200 400"/>
  <polyline class="cls-2" points="200 110.64 200 43.77 200 0"/>
</svg>