<?xml version="1.0" encoding="UTF-8"?>
<svg id="Target" xmlns="http://www.w3.org/2000/svg" viewBox="0 0 400 400">
  <defs>
    <style>
      .cls-1 {
        fill: #0c1e3a;
        stroke-width: 0px;
      }
    </style>
  </defs>
  <path class="cls-1" d="m400,193h-.14C396.26,88.11,311.89,3.74,207,.13V0h-6.99s0,0,0,0,0,0,0,0h-6.99v.14C88.11,3.74,3.75,88.11.14,193H0v6.96s0,.03,0,.04,0,.03,0,.04v6.96h.13c3.61,104.89,87.97,189.26,192.87,192.86v.14h14v-.14c104.89-3.61,189.25-87.97,192.86-192.86h.14v-14Zm-68.48-124.52c33.47,33.47,52.6,77.47,54.33,124.52h-29.79c-3.56-80.71-68.36-145.51-149.07-149.07V14.14c47.06,1.73,91.05,20.86,124.52,54.33Zm-42.16,131.54c-.01,49.34-40.02,89.34-89.36,89.34s-89.35-40-89.36-89.35v-.02c0-49.35,40.01-89.35,89.36-89.35s89.35,40,89.36,89.34v.04Zm-96.36-103.14c-51.43,3.46-92.66,44.69-96.12,96.12h-38.94c1.7-35.36,16.28-68.36,41.49-93.57s58.21-39.79,93.57-41.49v38.94Zm-96.12,110.12c3.46,51.43,44.69,92.66,96.12,96.12v38.94c-35.36-1.7-68.36-16.28-93.57-41.49s-39.79-58.21-41.49-93.57h38.94Zm110.12,96.12c3.82-.26,7.58-.71,11.27-1.38,16.95-3.04,32.48-10.22,45.5-20.46.65-.51,1.3-1.03,1.93-1.56,5.11-4.22,9.8-8.91,14.02-14.02.53-.64,1.05-1.28,1.56-1.93,1.02-1.3,2.02-2.63,2.98-3.98.48-.68.95-1.36,1.42-2.04,3.72-5.5,6.92-11.37,9.54-17.56,4.37-10.32,7.11-21.49,7.89-33.19h38.94c-1.7,35.36-16.28,68.36-41.49,93.57s-58.21,39.79-93.57,41.49v-38.94Zm96.12-110.12c-.79-11.7-3.52-22.87-7.89-33.19-2.62-6.18-5.82-12.06-9.54-17.56-.46-.69-.94-1.37-1.42-2.04-.96-1.35-1.95-2.68-2.98-3.98-.51-.65-1.03-1.3-1.56-1.93-4.22-5.11-8.91-9.8-14.02-14.02-.64-.53-1.28-1.05-1.93-1.56-13.02-10.24-28.55-17.42-45.5-20.46-3.69-.66-7.46-1.12-11.27-1.38v-38.94c35.36,1.7,68.36,16.28,93.57,41.49,25.21,25.21,39.79,58.21,41.49,93.57h-38.94ZM68.48,68.48C101.95,35,145.94,15.87,193,14.14v29.79c-80.71,3.56-145.51,68.36-149.07,149.07H14.14c1.73-47.06,20.86-91.05,54.33-124.52Zm0,263.05c-33.47-33.47-52.6-77.47-54.33-124.52h29.79c3.56,80.71,68.36,145.51,149.07,149.07v29.79c-47.06-1.73-91.05-20.86-124.52-54.33Zm263.05,0c-33.47,33.47-77.47,52.6-124.52,54.33v-29.79c80.71-3.56,145.51-68.36,149.07-149.07h29.79c-1.73,47.06-20.86,91.05-54.33,124.52Z"/>
</svg>