<?xml version="1.0" encoding="UTF-8"?>
<svg id="welcome-sign" xmlns="http://www.w3.org/2000/svg" viewBox="0 0 1862.98 1205.21">
  <defs>
    <style>
      .cls-1 {
        fill: #fdeebd;
      }

      .cls-1, .cls-2, .cls-3, .cls-4 {
        stroke-width: 0px;
      }

      .cls-2 {
        fill: #f20d21;
      }

      .cls-3 {
        fill: #ecf5f5;
      }

      .cls-4 {
        fill: #f2d42f;
      }
    </style>
  </defs>
  <g>
    <path class="cls-2" d="m1847.98,605.5c0-92.04-82.17-213.86-184.34-222.06l-3.46-75.39c-.86-18.83-16.2-33.65-34.82-33.65h-78.08C1424.25,96.46,1198.53,15,931.49,15S433.82,96.46,310.79,274.39h-88.92c-19.06,0-34.58,15.49-34.85,34.79l-1.15,81.34c-96.41,12.89-170.86,126.56-170.86,214.98s73.96,190.67,170.37,203.55l.24,83.93c.06,19.45,15.65,35.19,34.86,35.19h83.6c121.67,181.91,356.78,262.04,627.43,262.04s502.41-83.54,624.08-265.44h72.48c18.89,0,34.34-15.23,34.84-34.35l1.96-74.47c102.17-8.21,183.13-118.41,183.13-210.44Z"/>
    <path class="cls-4" d="m931.49,1205.21c-142.09,0-268.29-21.49-375.11-63.86-112.55-44.65-200.06-111.3-260.25-198.18h-75.66c-27.41,0-49.78-22.5-49.86-50.15l-.2-71.35c-44.27-9.41-85.79-36.28-118.09-76.71C19.07,703.36,0,652.53,0,605.5s19.54-100.95,52.26-144.79c32.9-44.07,74.67-73.08,118.78-82.79l.98-68.95c.39-27.33,22.75-49.57,49.85-49.57h81.13c61.01-85.37,147.96-151.06,258.56-195.35C667.71,21.55,792.17,0,931.49,0s262.57,21.56,367.53,64.07c108.86,44.09,194.97,109.79,256.05,195.32h70.28c26.69,0,48.57,21.07,49.8,47.96l2.88,62.77c103.56,17.47,184.94,139.27,184.94,235.37,0,49.18-20.66,102.47-56.67,146.2-35.28,42.84-79.88,70.01-126.8,77.58l-1.62,61.54c-.35,13.14-5.67,25.44-14.99,34.63-9.37,9.24-21.75,14.33-34.85,14.33h-64.54c-60.42,87.31-147.33,154.52-258.45,199.83-106.78,43.54-232.47,65.62-373.57,65.62ZM221.87,289.39c-10.79,0-19.7,8.97-19.86,20l-1.34,94.28-12.83,1.71c-40.73,5.45-80.35,31.47-111.55,73.27-28.99,38.84-46.3,86.26-46.3,126.85,0,79.14,67.3,176.65,157.36,188.69l12.97,1.73.28,97.02c.03,11.16,8.94,20.23,19.86,20.23h91.61l4.45,6.66c110.15,164.68,328.55,255.38,614.96,255.38s499.99-91.9,611.61-258.78l4.46-6.66h80.49c10.84,0,19.56-8.67,19.85-19.75l2.31-87.95,13.44-1.08c95.36-7.66,169.33-111.38,169.33-195.49s-78.7-199.74-170.54-207.11l-13.18-1.06-4.07-88.59c-.5-10.85-9.21-19.34-19.83-19.34h-85.94l-4.47-6.47C1422.17,119.82,1207.86,30,931.49,30s-495.59,89.82-608.37,252.92l-4.47,6.47h-96.78Z"/>
  </g>
  <g>
    <path class="cls-1" d="m1717.52,604.8c0-69.71-68.65-126.94-156.28-133.16v-54.3c0-18.84-15.27-34.11-34.11-34.11h-61.39c-105.52-134.78-305.22-225.71-534.25-225.71s-428.74,90.94-534.25,225.71h-71.63c-18.84,0-34.11,15.27-34.11,34.11v55.24c-82.69,9.76-146.05,65.24-146.05,132.22s63.36,122.46,146.05,132.22v45.38c0,18.84,15.27,34.11,34.11,34.11h67.4c104.35,137.79,306.36,231.19,538.48,231.19s434.13-93.41,538.48-231.19h57.17c18.84,0,34.11-15.27,34.11-34.11v-44.44c87.63-6.22,156.28-63.44,156.28-133.16Z"/>
    <path class="cls-4" d="m931.49,1062.7c-114.14,0-225.89-22.54-323.18-65.19-92.37-40.49-169.19-97.79-222.68-166h-60.02c-27.08,0-49.11-22.03-49.11-49.11v-32.44c-38.15-6.78-72.93-23.02-99.04-46.42-30.31-27.17-47-62.23-47-98.74s16.69-71.57,47-98.74c26.11-23.4,60.89-39.64,99.04-46.42v-42.3c0-27.08,22.03-49.11,49.11-49.11h64.4c54.03-66.74,130.66-122.72,222.1-162.17,96.35-41.57,206.8-63.54,319.38-63.54s223.03,21.97,319.38,63.54c91.44,39.45,168.07,95.43,222.1,162.17h54.16c27.08,0,49.11,22.03,49.11,49.11v40.75c40.37,5.31,77.48,21,105.69,44.87,32.62,27.61,50.59,63.78,50.59,101.84s-17.97,74.23-50.59,101.84c-28.21,23.88-65.33,39.56-105.69,44.87v30.88c0,27.08-22.03,49.11-49.11,49.11h-49.79c-53.49,68.22-130.32,125.52-222.68,166-97.29,42.65-209.04,65.19-323.17,65.19ZM325.61,398.23c-10.54,0-19.11,8.57-19.11,19.11v68.58l-13.24,1.56c-37.22,4.39-71.24,18.93-95.78,40.93-23.88,21.4-37.03,48.53-37.03,76.4s13.15,54.99,37.03,76.4c24.54,22,58.56,36.53,95.78,40.93l13.24,1.56v58.71c0,10.54,8.57,19.11,19.11,19.11h74.85l4.5,5.94c105.22,138.94,306.97,225.25,526.52,225.25s421.3-86.31,526.52-225.25l4.5-5.94h64.62c10.54,0,19.11-8.57,19.11-19.11v-58.41l13.94-.99c39.41-2.8,75.77-16.74,102.37-39.25,25.78-21.82,39.97-49.85,39.97-78.94s-14.2-57.13-39.97-78.94c-26.6-22.52-62.96-36.46-102.37-39.25l-13.94-.99v-68.28c0-10.54-8.57-19.11-19.11-19.11h-68.7l-4.5-5.75c-106.22-135.68-306.41-219.96-522.44-219.96s-416.22,84.28-522.44,219.96l-4.5,5.75h-78.93Z"/>
  </g>
  <circle class="cls-3" cx="931.49" cy="84.05" r="17.05"/>
  <g>
    <g>
      <circle class="cls-3" cx="995.21" cy="1121.17" r="17.05"/>
      <circle class="cls-3" cx="1059.89" cy="1111.3" r="17.05"/>
      <circle class="cls-3" cx="1124.57" cy="1099.24" r="17.05"/>
      <circle class="cls-3" cx="1190.35" cy="1082.19" r="17.05"/>
      <circle class="cls-3" cx="1250.64" cy="1060.26" r="17.05"/>
      <circle class="cls-3" cx="1315.32" cy="1030.64" r="17.05"/>
      <circle class="cls-3" cx="1371.23" cy="996.54" r="17.05"/>
      <circle class="cls-3" cx="1420.57" cy="962.43" r="17.05"/>
      <circle class="cls-3" cx="1466.61" cy="920.77" r="17.05"/>
      <circle class="cls-3" cx="1518" cy="883.01" r="17.05"/>
      <circle class="cls-3" cx="1593.78" cy="865.96" r="17.05"/>
      <circle class="cls-3" cx="1615.7" cy="796.89" r="17.05"/>
      <circle class="cls-3" cx="1674.9" cy="762.78" r="17.05"/>
      <circle class="cls-3" cx="1724.24" cy="722.22" r="17.05"/>
      <circle class="cls-3" cx="1768.45" cy="665.82" r="17.05"/>
    </g>
    <g>
      <circle class="cls-3" cx="867.3" cy="1121.17" r="17.05"/>
      <circle class="cls-3" cx="802.62" cy="1111.3" r="17.05"/>
      <circle class="cls-3" cx="737.94" cy="1099.24" r="17.05"/>
      <circle class="cls-3" cx="672.16" cy="1082.19" r="17.05"/>
      <circle class="cls-3" cx="611.86" cy="1060.26" r="17.05"/>
      <circle class="cls-3" cx="547.18" cy="1030.64" r="17.05"/>
      <circle class="cls-3" cx="491.27" cy="996.54" r="17.05"/>
      <circle class="cls-3" cx="441.94" cy="962.43" r="17.05"/>
      <circle class="cls-3" cx="395.9" cy="920.77" r="17.05"/>
      <circle class="cls-3" cx="344.51" cy="883.01" r="17.05"/>
      <circle class="cls-3" cx="263.86" cy="865.96" r="17.05"/>
      <circle class="cls-3" cx="239.98" cy="802.13" r="17.05"/>
      <circle class="cls-3" cx="187.6" cy="762.78" r="17.05"/>
      <circle class="cls-3" cx="138.27" cy="722.22" r="17.05"/>
      <circle class="cls-3" cx="94.05" cy="665.82" r="17.05"/>
    </g>
  </g>
  <g>
    <circle class="cls-3" cx="995.21" cy="84.05" r="17.05"/>
    <circle class="cls-3" cx="1059.89" cy="93.91" r="17.05"/>
    <circle class="cls-3" cx="1124.57" cy="105.97" r="17.05"/>
    <circle class="cls-3" cx="1190.35" cy="123.02" r="17.05"/>
    <circle class="cls-3" cx="1250.64" cy="144.95" r="17.05"/>
    <circle class="cls-3" cx="1315.32" cy="174.57" r="17.05"/>
    <circle class="cls-3" cx="1371.23" cy="208.68" r="17.05"/>
    <circle class="cls-3" cx="1420.57" cy="242.78" r="17.05"/>
    <circle class="cls-3" cx="1466.61" cy="284.44" r="17.05"/>
    <circle class="cls-3" cx="1518" cy="322.2" r="17.05"/>
    <circle class="cls-3" cx="1593.78" cy="339.26" r="17.05"/>
    <circle class="cls-3" cx="1615.7" cy="408.32" r="17.05"/>
    <circle class="cls-3" cx="1674.9" cy="442.43" r="17.05"/>
    <circle class="cls-3" cx="1724.24" cy="482.99" r="17.05"/>
    <circle class="cls-3" cx="1768.45" cy="539.39" r="17.05"/>
  </g>
  <g>
    <circle class="cls-3" cx="867.3" cy="84.05" r="17.05"/>
    <circle class="cls-3" cx="802.62" cy="93.91" r="17.05"/>
    <circle class="cls-3" cx="737.94" cy="105.97" r="17.05"/>
    <circle class="cls-3" cx="672.16" cy="123.02" r="17.05"/>
    <circle class="cls-3" cx="611.86" cy="144.95" r="17.05"/>
    <circle class="cls-3" cx="547.18" cy="174.57" r="17.05"/>
    <circle class="cls-3" cx="491.27" cy="208.68" r="17.05"/>
    <circle class="cls-3" cx="441.94" cy="242.78" r="17.05"/>
    <circle class="cls-3" cx="395.9" cy="284.44" r="17.05"/>
    <circle class="cls-3" cx="344.51" cy="322.2" r="17.05"/>
    <circle class="cls-3" cx="263.86" cy="339.26" r="17.05"/>
    <circle class="cls-3" cx="239.98" cy="403.08" r="17.05"/>
    <circle class="cls-3" cx="187.6" cy="442.43" r="17.05"/>
    <circle class="cls-3" cx="138.27" cy="482.99" r="17.05"/>
    <circle class="cls-3" cx="94.05" cy="539.39" r="17.05"/>
  </g>
  <circle class="cls-3" cx="931.49" cy="1128.35" r="17.05"/>
  <circle class="cls-3" cx="1780.74" cy="602.61" r="17.05"/>
  <circle class="cls-3" cx="88.09" cy="602.61" r="17.05"/>
</svg>