<?xml version="1.0" encoding="UTF-8"?>
<svg id="welcome-sign" xmlns="http://www.w3.org/2000/svg" viewBox="0 0 1929.43 1306.29">
  <defs>
    <style>
      .cls-1 {
        fill: #fdeebd;
      }

      .cls-1, .cls-2, .cls-3, .cls-4 {
        stroke-width: 0px;
      }

      .cls-2 {
        fill: #f20d21;
      }

      .cls-3 {
        fill: #ecf5f5;
      }

      .cls-4 {
        fill: #f2d42f;
      }
    </style>
  </defs>
  <g>
    <path class="cls-2" d="m1885.69,659.29c0-92.04-82.17-213.86-184.34-222.06l-3.46-75.39c-.86-18.83-16.2-33.65-34.82-33.65h-78.08c-123.03-177.93-348.75-259.39-615.79-259.39s-497.67,81.46-620.7,259.39h-88.92c-19.06,0-34.58,15.49-34.85,34.79l-1.15,81.34c-96.41,12.89-170.86,126.56-170.86,214.98s73.96,190.67,170.37,203.55l.24,83.93c.06,19.45,15.65,35.19,34.86,35.19h83.6c121.67,181.91,356.78,262.04,627.43,262.04s502.41-83.54,624.08-265.44h72.48c18.89,0,34.34-15.23,34.84-34.35l1.96-74.47c102.17-8.21,183.13-118.41,183.13-210.44Z"/>
    <path class="cls-4" d="m969.21,1259c-142.09,0-268.29-21.49-375.11-63.86-112.55-44.65-200.06-111.3-260.25-198.18h-75.66c-27.41,0-49.78-22.5-49.86-50.15l-.2-71.35c-44.27-9.41-85.79-36.28-118.09-76.71-33.25-41.61-52.31-92.44-52.31-139.47s19.54-100.95,52.26-144.79c32.9-44.07,74.67-73.08,118.78-82.79l.98-68.95c.39-27.33,22.75-49.57,49.85-49.57h81.13c61.01-85.37,147.96-151.06,258.56-195.35,106.15-42.5,230.61-64.05,369.93-64.05s262.57,21.56,367.53,64.07c108.86,44.09,194.97,109.79,256.05,195.32h70.28c26.69,0,48.57,21.07,49.8,47.96l2.88,62.77c103.56,17.47,184.94,139.27,184.94,235.37,0,49.18-20.66,102.47-56.67,146.2-35.28,42.84-79.88,70.01-126.8,77.58l-1.62,61.54c-.35,13.14-5.67,25.44-14.99,34.63-9.37,9.24-21.75,14.33-34.85,14.33h-64.54c-60.42,87.31-147.33,154.52-258.45,199.83-106.78,43.54-232.47,65.62-373.57,65.62ZM259.58,343.18c-10.79,0-19.7,8.97-19.86,20l-1.34,94.28-12.83,1.71c-40.73,5.45-80.35,31.47-111.55,73.27-28.99,38.84-46.3,86.26-46.3,126.85,0,79.14,67.3,176.65,157.36,188.69l12.97,1.73.28,97.02c.03,11.16,8.94,20.23,19.86,20.23h91.61l4.45,6.66c110.15,164.68,328.55,255.38,614.96,255.38s499.99-91.9,611.61-258.78l4.46-6.66h80.49c10.84,0,19.56-8.67,19.85-19.75l2.31-87.95,13.44-1.08c95.36-7.66,169.33-111.38,169.33-195.49s-78.7-199.74-170.54-207.11l-13.18-1.06-4.07-88.59c-.5-10.85-9.21-19.34-19.83-19.34h-85.94l-4.47-6.47c-112.78-163.1-327.09-252.92-603.45-252.92s-495.59,89.82-608.37,252.92l-4.47,6.47h-96.78Z"/>
  </g>
  <g>
    <path class="cls-1" d="m1755.24,658.59c0-69.71-68.65-126.94-156.28-133.16v-54.3c0-18.84-15.27-34.11-34.11-34.11h-61.39c-105.52-134.78-305.22-225.71-534.25-225.71s-428.74,90.94-534.25,225.71h-71.63c-18.84,0-34.11,15.27-34.11,34.11v55.24c-82.69,9.76-146.05,65.24-146.05,132.22s63.36,122.46,146.05,132.22v45.38c0,18.84,15.27,34.11,34.11,34.11h67.4c104.35,137.79,306.36,231.19,538.48,231.19s434.13-93.41,538.48-231.19h57.17c18.84,0,34.11-15.27,34.11-34.11v-44.44c87.63-6.22,156.28-63.44,156.28-133.16Z"/>
    <path class="cls-4" d="m969.2,1116.48c-114.14,0-225.89-22.54-323.18-65.19-92.37-40.49-169.19-97.79-222.68-166h-60.02c-27.08,0-49.11-22.03-49.11-49.11v-32.44c-38.15-6.78-72.93-23.02-99.04-46.42-30.31-27.17-47-62.23-47-98.74s16.69-71.57,47-98.74c26.11-23.4,60.89-39.64,99.04-46.42v-42.3c0-27.08,22.03-49.11,49.11-49.11h64.4c54.03-66.74,130.66-122.72,222.1-162.17,96.35-41.57,206.8-63.54,319.38-63.54s223.03,21.97,319.38,63.54c91.44,39.45,168.07,95.43,222.1,162.17h54.16c27.08,0,49.11,22.03,49.11,49.11v40.75c40.37,5.31,77.48,21,105.69,44.87,32.62,27.61,50.59,63.78,50.59,101.84s-17.97,74.23-50.59,101.84c-28.21,23.88-65.33,39.56-105.69,44.87v30.88c0,27.08-22.03,49.11-49.11,49.11h-49.79c-53.49,68.22-130.32,125.52-222.68,166-97.29,42.65-209.04,65.19-323.17,65.19ZM363.33,452.02c-10.54,0-19.11,8.57-19.11,19.11v68.58l-13.24,1.56c-37.22,4.39-71.24,18.93-95.78,40.93-23.88,21.4-37.03,48.53-37.03,76.4s13.15,54.99,37.03,76.4c24.54,22,58.56,36.53,95.78,40.93l13.24,1.56v58.71c0,10.54,8.57,19.11,19.11,19.11h74.85l4.5,5.94c105.22,138.94,306.97,225.25,526.52,225.25s421.3-86.31,526.52-225.25l4.5-5.94h64.62c10.54,0,19.11-8.57,19.11-19.11v-58.41l13.94-.99c39.41-2.8,75.77-16.74,102.37-39.25,25.78-21.82,39.97-49.85,39.97-78.94s-14.2-57.13-39.97-78.94c-26.6-22.52-62.96-36.46-102.37-39.25l-13.94-.99v-68.28c0-10.54-8.57-19.11-19.11-19.11h-68.7l-4.5-5.75c-106.22-135.68-306.41-219.96-522.44-219.96s-416.22,84.28-522.44,219.96l-4.5,5.75h-78.93Z"/>
  </g>
  <circle class="cls-3" cx="969.2" cy="137.83" r="17.05"/>
  <g>
    <g>
      <circle class="cls-3" cx="1032.92" cy="1174.95" r="17.05"/>
      <circle class="cls-3" cx="1097.61" cy="1165.09" r="17.05"/>
      <circle class="cls-3" cx="1162.29" cy="1153.03" r="17.05"/>
      <circle class="cls-3" cx="1228.06" cy="1135.98" r="17.05"/>
      <circle class="cls-3" cx="1288.36" cy="1114.05" r="17.05"/>
      <circle class="cls-3" cx="1353.04" cy="1084.43" r="17.05"/>
      <circle class="cls-3" cx="1408.95" cy="1050.32" r="17.05"/>
      <circle class="cls-3" cx="1458.28" cy="1016.22" r="17.05"/>
      <circle class="cls-3" cx="1504.33" cy="974.56" r="17.05"/>
      <circle class="cls-3" cx="1555.71" cy="936.8" r="17.05"/>
      <circle class="cls-3" cx="1631.49" cy="919.74" r="17.05"/>
      <circle class="cls-3" cx="1653.42" cy="850.68" r="17.05"/>
      <circle class="cls-3" cx="1712.62" cy="816.57" r="17.05"/>
      <circle class="cls-3" cx="1761.95" cy="776.01" r="17.05"/>
      <circle class="cls-3" cx="1806.17" cy="719.61" r="17.05"/>
    </g>
    <g>
      <circle class="cls-3" cx="905.01" cy="1174.95" r="17.05"/>
      <circle class="cls-3" cx="840.33" cy="1165.09" r="17.05"/>
      <circle class="cls-3" cx="775.65" cy="1153.03" r="17.05"/>
      <circle class="cls-3" cx="709.87" cy="1135.98" r="17.05"/>
      <circle class="cls-3" cx="649.58" cy="1114.05" r="17.05"/>
      <circle class="cls-3" cx="584.9" cy="1084.43" r="17.05"/>
      <circle class="cls-3" cx="528.99" cy="1050.32" r="17.05"/>
      <circle class="cls-3" cx="479.65" cy="1016.22" r="17.05"/>
      <circle class="cls-3" cx="433.61" cy="974.56" r="17.05"/>
      <circle class="cls-3" cx="382.22" cy="936.8" r="17.05"/>
      <circle class="cls-3" cx="301.57" cy="919.74" r="17.05"/>
      <circle class="cls-3" cx="277.7" cy="855.92" r="17.05"/>
      <circle class="cls-3" cx="225.32" cy="816.57" r="17.05"/>
      <circle class="cls-3" cx="175.98" cy="776.01" r="17.05"/>
      <circle class="cls-3" cx="131.77" cy="719.61" r="17.05"/>
    </g>
  </g>
  <g>
    <circle class="cls-3" cx="1032.92" cy="137.83" r="17.05"/>
    <circle class="cls-3" cx="1097.61" cy="147.7" r="17.05"/>
    <circle class="cls-3" cx="1162.29" cy="159.76" r="17.05"/>
    <circle class="cls-3" cx="1228.06" cy="176.81" r="17.05"/>
    <circle class="cls-3" cx="1288.36" cy="198.74" r="17.05"/>
    <circle class="cls-3" cx="1353.04" cy="228.36" r="17.05"/>
    <circle class="cls-3" cx="1408.95" cy="262.46" r="17.05"/>
    <circle class="cls-3" cx="1458.28" cy="296.57" r="17.05"/>
    <circle class="cls-3" cx="1504.33" cy="338.23" r="17.05"/>
    <circle class="cls-3" cx="1555.71" cy="375.99" r="17.05"/>
    <circle class="cls-3" cx="1631.49" cy="393.04" r="17.05"/>
    <circle class="cls-3" cx="1653.42" cy="462.11" r="17.05"/>
    <circle class="cls-3" cx="1712.62" cy="496.21" r="17.05"/>
    <circle class="cls-3" cx="1761.95" cy="536.78" r="17.05"/>
    <circle class="cls-3" cx="1806.17" cy="593.17" r="17.05"/>
  </g>
  <g>
    <circle class="cls-3" cx="905.01" cy="137.83" r="17.05"/>
    <circle class="cls-3" cx="840.33" cy="147.7" r="17.05"/>
    <circle class="cls-3" cx="775.65" cy="159.76" r="17.05"/>
    <circle class="cls-3" cx="709.87" cy="176.81" r="17.05"/>
    <circle class="cls-3" cx="649.58" cy="198.74" r="17.05"/>
    <circle class="cls-3" cx="584.9" cy="228.36" r="17.05"/>
    <circle class="cls-3" cx="528.99" cy="262.46" r="17.05"/>
    <circle class="cls-3" cx="479.65" cy="296.57" r="17.05"/>
    <circle class="cls-3" cx="433.61" cy="338.23" r="17.05"/>
    <circle class="cls-3" cx="382.22" cy="375.99" r="17.05"/>
    <circle class="cls-3" cx="301.57" cy="393.04" r="17.05"/>
    <circle class="cls-3" cx="277.7" cy="456.87" r="17.05"/>
    <circle class="cls-3" cx="225.32" cy="496.21" r="17.05"/>
    <circle class="cls-3" cx="175.98" cy="536.78" r="17.05"/>
    <circle class="cls-3" cx="131.77" cy="593.17" r="17.05"/>
  </g>
  <circle class="cls-3" cx="969.2" cy="1182.14" r="17.05"/>
  <circle class="cls-3" cx="1818.46" cy="656.39" r="17.05"/>
  <circle class="cls-3" cx="125.8" cy="656.39" r="17.05"/>
</svg>