<?xml version="1.0" encoding="UTF-8"?>
<svg id="_Слой_11" data-name="Слой 11" xmlns="http://www.w3.org/2000/svg" viewBox="0 0 1929.43 1306.29">
  <defs>
    <style>
      .cls-1 {
        fill: #f20d21;
      }

      .cls-1, .cls-2 {
        stroke: #f2d42f;
        stroke-miterlimit: 10;
        stroke-width: 30px;
      }

      .cls-3 {
        fill: #ecf5f5;
        stroke-width: 0px;
      }

      .cls-2 {
        fill: #fdeebd;
      }
    </style>
  </defs>
  <path class="cls-1" d="m1885.69,659.29c0-92.04-82.17-213.86-184.34-222.06l-3.46-75.39c-.86-18.83-16.2-33.65-34.82-33.65h-78.08c-123.03-177.93-348.75-259.39-615.79-259.39s-497.67,81.46-620.7,259.39h-88.92c-19.06,0-34.58,15.49-34.85,34.79l-1.15,81.34c-96.41,12.89-170.86,126.56-170.86,214.98s73.96,190.67,170.37,203.55l.24,83.93c.06,19.45,15.65,35.19,34.86,35.19h83.6c121.67,181.91,356.78,262.04,627.43,262.04s502.41-83.54,624.08-265.44h72.48c18.89,0,34.34-15.23,34.84-34.35l1.96-74.47c102.17-8.21,183.13-118.41,183.13-210.44Z"/>
  <path class="cls-2" d="m1755.24,658.59c0-69.71-68.65-126.94-156.28-133.16v-54.3c0-18.84-15.27-34.11-34.11-34.11h-61.39c-105.52-134.78-305.22-225.71-534.25-225.71s-428.74,90.94-534.25,225.71h-71.63c-18.84,0-34.11,15.27-34.11,34.11v55.24c-82.69,9.76-146.05,65.24-146.05,132.22s63.36,122.46,146.05,132.22v45.38c0,18.84,15.27,34.11,34.11,34.11h67.4c104.35,137.79,306.36,231.19,538.48,231.19s434.13-93.41,538.48-231.19h57.17c18.84,0,34.11-15.27,34.11-34.11v-44.44c87.63-6.22,156.28-63.44,156.28-133.16Z"/>
  <circle class="cls-3" cx="969.2" cy="137.83" r="17.05"/>
  <g>
    <g>
      <circle class="cls-3" cx="1032.92" cy="1174.95" r="17.05"/>
      <circle class="cls-3" cx="1097.61" cy="1165.09" r="17.05"/>
      <circle class="cls-3" cx="1162.29" cy="1153.03" r="17.05"/>
      <circle class="cls-3" cx="1228.06" cy="1135.98" r="17.05"/>
      <circle class="cls-3" cx="1288.36" cy="1114.05" r="17.05"/>
      <circle class="cls-3" cx="1353.04" cy="1084.43" r="17.05"/>
      <circle class="cls-3" cx="1408.95" cy="1050.32" r="17.05"/>
      <circle class="cls-3" cx="1458.28" cy="1016.22" r="17.05"/>
      <circle class="cls-3" cx="1504.33" cy="974.56" r="17.05"/>
      <circle class="cls-3" cx="1555.71" cy="936.8" r="17.05"/>
      <circle class="cls-3" cx="1631.49" cy="919.74" r="17.05"/>
      <circle class="cls-3" cx="1653.42" cy="850.68" r="17.05"/>
      <circle class="cls-3" cx="1712.62" cy="816.57" r="17.05"/>
      <circle class="cls-3" cx="1761.95" cy="776.01" r="17.05"/>
      <circle class="cls-3" cx="1806.17" cy="719.61" r="17.05"/>
    </g>
    <g>
      <circle class="cls-3" cx="905.01" cy="1174.95" r="17.05"/>
      <circle class="cls-3" cx="840.33" cy="1165.09" r="17.05"/>
      <circle class="cls-3" cx="775.65" cy="1153.03" r="17.05"/>
      <circle class="cls-3" cx="709.87" cy="1135.98" r="17.05"/>
      <circle class="cls-3" cx="649.58" cy="1114.05" r="17.05"/>
      <circle class="cls-3" cx="584.9" cy="1084.43" r="17.05"/>
      <circle class="cls-3" cx="528.99" cy="1050.32" r="17.05"/>
      <circle class="cls-3" cx="479.65" cy="1016.22" r="17.05"/>
      <circle class="cls-3" cx="433.61" cy="974.56" r="17.05"/>
      <circle class="cls-3" cx="382.22" cy="936.8" r="17.05"/>
      <circle class="cls-3" cx="301.57" cy="919.74" r="17.05"/>
      <circle class="cls-3" cx="277.7" cy="855.92" r="17.05"/>
      <circle class="cls-3" cx="225.32" cy="816.57" r="17.05"/>
      <circle class="cls-3" cx="175.98" cy="776.01" r="17.05"/>
      <circle class="cls-3" cx="131.77" cy="719.61" r="17.05"/>
    </g>
  </g>
  <g>
    <circle class="cls-3" cx="1032.92" cy="137.83" r="17.05"/>
    <circle class="cls-3" cx="1097.61" cy="147.7" r="17.05"/>
    <circle class="cls-3" cx="1162.29" cy="159.76" r="17.05"/>
    <circle class="cls-3" cx="1228.06" cy="176.81" r="17.05"/>
    <circle class="cls-3" cx="1288.36" cy="198.74" r="17.05"/>
    <circle class="cls-3" cx="1353.04" cy="228.36" r="17.05"/>
    <circle class="cls-3" cx="1408.95" cy="262.46" r="17.05"/>
    <circle class="cls-3" cx="1458.28" cy="296.57" r="17.05"/>
    <circle class="cls-3" cx="1504.33" cy="338.23" r="17.05"/>
    <circle class="cls-3" cx="1555.71" cy="375.99" r="17.05"/>
    <circle class="cls-3" cx="1631.49" cy="393.04" r="17.05"/>
    <circle class="cls-3" cx="1653.42" cy="462.11" r="17.05"/>
    <circle class="cls-3" cx="1712.62" cy="496.21" r="17.05"/>
    <circle class="cls-3" cx="1761.95" cy="536.78" r="17.05"/>
    <circle class="cls-3" cx="1806.17" cy="593.17" r="17.05"/>
  </g>
  <g>
    <circle class="cls-3" cx="905.01" cy="137.83" r="17.05"/>
    <circle class="cls-3" cx="840.33" cy="147.7" r="17.05"/>
    <circle class="cls-3" cx="775.65" cy="159.76" r="17.05"/>
    <circle class="cls-3" cx="709.87" cy="176.81" r="17.05"/>
    <circle class="cls-3" cx="649.58" cy="198.74" r="17.05"/>
    <circle class="cls-3" cx="584.9" cy="228.36" r="17.05"/>
    <circle class="cls-3" cx="528.99" cy="262.46" r="17.05"/>
    <circle class="cls-3" cx="479.65" cy="296.57" r="17.05"/>
    <circle class="cls-3" cx="433.61" cy="338.23" r="17.05"/>
    <circle class="cls-3" cx="382.22" cy="375.99" r="17.05"/>
    <circle class="cls-3" cx="301.57" cy="393.04" r="17.05"/>
    <circle class="cls-3" cx="277.7" cy="456.87" r="17.05"/>
    <circle class="cls-3" cx="225.32" cy="496.21" r="17.05"/>
    <circle class="cls-3" cx="175.98" cy="536.78" r="17.05"/>
    <circle class="cls-3" cx="131.77" cy="593.17" r="17.05"/>
  </g>
  <circle class="cls-3" cx="969.2" cy="1182.14" r="17.05"/>
  <circle class="cls-3" cx="1818.46" cy="656.39" r="17.05"/>
  <circle class="cls-3" cx="125.8" cy="656.39" r="17.05"/>
</svg>